<?xml version="1.0" encoding="utf-8"?>
<!-- Generator: Adobe Illustrator 20.0.0, SVG Export Plug-In . SVG Version: 6.00 Build 0)  -->
<svg version="1.1" id="Layer_1" xmlns="http://www.w3.org/2000/svg" xmlns:xlink="http://www.w3.org/1999/xlink" x="0px" y="0px"
	 viewBox="0 0 200 200" style="enable-background:new 0 0 200 200;" xml:space="preserve">
<style type="text/css">
	.st0{fill:#221061;}
	.st1{fill:#FFFFFF;}
</style>
<rect class="st0" width="200" height="200"/>
<path class="st1" d="M12.3,187.7h172.5c1.6,0,3-1.3,3-3v-17.8c0-1.6-1.3-3-3-3h-8.9V155c0-1.6-1.3-3-3-3H155c-1.6,0-3,1.3-3,3v8.9
	h-29.7V152h-5.9v11.9h-14.9v-17.8h-5.9v17.8H77.7v-17.8h-5.9v17.8H56.9V155h-5.9v8.9H39.3l1.3-15.7l0.5-6v0l0.7-8h6.2v-5.9H39H21.2
	h-8.9v5.9h6.2l2.5,29.7h-8.7c-1.6,0-3,1.3-3,3v17.8C9.3,186.4,10.6,187.7,12.3,187.7z M158,158h11.9v5.9H158V158z M25.5,147.2
	l9.3-1.7l-0.5,5.9L26,153L25.5,147.2z M35.8,134.2l-0.4,5.2L25,141.3l-0.6-7.1H35.8z M26.5,158.9l7.4-1.3l-0.5,6.3h-6.4L26.5,158.9z
	 M15.2,169.9h8.9h11.9H155h17.8h8.9v11.9H15.2V169.9z"/>
<path class="st1" d="M22.8,86.5L54.3,118l5.7,14.3c0.3,0.8,1,1.4,1.8,1.7l17.8,5.9c0.3,0.1,0.6,0.2,0.9,0.2c0.8,0,1.5-0.3,2.1-0.9
	l8.9-8.9c0.9-0.9,1.1-2.3,0.6-3.4l-8.9-17.8c-0.4-0.8-1.2-1.4-2.1-1.6l-14-2.8L38.4,75.8c0.4-1.3,0.6-2.7,0.6-4.1
	c0-3.3-1.1-6.4-3-8.8V12.3c0-1.6-1.3-3-3-3H15.2c-1.6,0-3,1.3-3,3v50.6c-1.8,2.5-3,5.5-3,8.8C9.3,79.5,15.2,85.8,22.8,86.5z
	 M15.2,71.7c0-2.2,0.9-4.2,2.2-5.8c0,0,0,0,0,0c3.5-4,9.9-4,13.4,0c0,0,0,0,0,0c1.4,1.6,2.2,3.6,2.2,5.8c0,1.3-0.3,2.5-0.8,3.6
	c0,0,0,0,0,0c-0.3,0.7-0.7,1.3-1.1,1.8c-0.1,0.2-0.3,0.4-0.4,0.5c-0.2,0.2-0.4,0.4-0.6,0.6c-0.2,0.2-0.4,0.3-0.6,0.5
	c-0.2,0.1-0.4,0.3-0.6,0.4c-0.4,0.2-0.8,0.5-1.2,0.7c-0.2,0.1-0.4,0.1-0.5,0.2c-0.3,0.1-0.7,0.2-1,0.3c-0.2,0-0.3,0.1-0.5,0.1
	c-0.5,0.1-1,0.2-1.6,0.2C19.2,80.7,15.2,76.7,15.2,71.7z M35.5,81.3l28.2,28.2c0.4,0.4,0.9,0.7,1.5,0.8l13.4,2.7l7.3,14.6l-6.1,6.1
	l-14.8-4.9l-5.4-13.6c-0.1-0.4-0.4-0.7-0.7-1L30.1,85.4c0.7-0.3,1.4-0.7,2-1.1c0.2-0.1,0.4-0.3,0.6-0.4c0.6-0.4,1.2-0.9,1.7-1.4
	c0.2-0.2,0.3-0.4,0.5-0.5C35.1,81.7,35.3,81.5,35.5,81.3z M30.1,15.2v42.9c-1.8-0.8-3.8-1.3-5.9-1.3s-4.1,0.5-5.9,1.3V15.2H30.1z"/>
<path class="st1" d="M187.7,71.7c0-3.3-1.1-6.4-3-8.8V12.3c0-1.6-1.3-3-3-3h-17.8c-1.6,0-3,1.3-3,3v50.6c-1.6,2.1-2.6,4.7-2.8,7.5
	l-21.9,21.9L126,89.7c-0.9-0.2-1.9,0-2.6,0.6l-14.9,11.9c-0.7,0.6-1.1,1.4-1.1,2.3v20.8c0,1.2,0.7,2.3,1.8,2.8
	c1.1,0.5,2.4,0.2,3.2-0.7l16.1-16.3l3.1,1.6l1.7,3.3l-13.6,16.3c-0.7,0.9-0.9,2.1-0.4,3.2c0.5,1,1.5,1.7,2.7,1.7h17.8
	c0.9,0,1.8-0.4,2.3-1.1l11.9-14.9c0.6-0.7,0.8-1.7,0.6-2.6l-2.5-10.1l22.1-22.1C181.7,85.8,187.7,79.5,187.7,71.7z M172.8,80.7
	c-4.9,0-8.9-4-8.9-8.9c0-2.2,0.9-4.2,2.2-5.8c0,0,0,0,0,0c3.5-4,9.9-4,13.4,0c0,0,0,0,0,0c1.4,1.6,2.2,3.6,2.2,5.8
	C181.8,76.7,177.7,80.7,172.8,80.7z M178.8,15.2v42.9c-1.8-0.8-3.8-1.3-5.9-1.3s-4.1,0.5-5.9,1.3V15.2H178.8z M138.4,131.2h-10.1
	l10.8-13c0.8-0.9,0.9-2.2,0.4-3.2l-3-5.9c-0.3-0.6-0.8-1-1.3-1.3l-5.9-3c-1.2-0.6-2.5-0.3-3.4,0.6L113.4,118v-12.1L126,95.8l9.4,2.4
	l10.7,10.7l2.4,9.7L138.4,131.2z M149,103.2l-7.7-7.7l17.8-17.8c0.2,0.6,0.6,1.1,0.9,1.6c0.2,0.3,0.3,0.6,0.4,0.8
	c1.1,1.6,2.4,2.9,4,4c0.3,0.2,0.5,0.3,0.8,0.4c0.5,0.3,1,0.6,1.6,0.9L149,103.2z"/>
<path class="st1" d="M86.6,9.3H68.8c-1.6,0-3,1.3-3,3V48c-1.8,2.5-3,5.5-3,8.8c0,4,1.6,7.6,4.1,10.2L71.8,96
	c0.2,1.4,1.5,2.5,2.9,2.5h5.9c1.5,0,2.7-1.1,2.9-2.5l4.8-28.9c2.6-2.7,4.1-6.3,4.1-10.2c0-3.3-1.1-6.4-3-8.8V12.3
	C89.6,10.6,88.2,9.3,86.6,9.3z M83.6,63.5c-3.3,3-8.6,3-11.9,0c0,0,0,0,0,0c-1.8-1.6-2.9-4-2.9-6.6c0-2.2,0.9-4.2,2.2-5.8
	c0,0,0,0,0,0c3.5-4,9.9-4,13.4,0c0,0,0,0,0,0c1.4,1.6,2.2,3.6,2.2,5.8C86.6,59.5,85.5,61.8,83.6,63.5C83.7,63.4,83.6,63.4,83.6,63.5
	z M83.6,15.2v28c-1.8-0.8-3.8-1.3-5.9-1.3s-4.1,0.5-5.9,1.3v-28H83.6z M78.1,92.5h-0.9l-3.6-21.4c0.2,0.1,0.4,0.1,0.6,0.1
	c0.3,0.1,0.6,0.1,0.9,0.2c0.8,0.1,1.6,0.2,2.3,0.2c0.1,0,0.1,0,0.2,0c0.1,0,0.1,0,0.2,0c0.8,0,1.6-0.1,2.3-0.2
	c0.3-0.1,0.6-0.1,0.9-0.2c0.2,0,0.4-0.1,0.6-0.1L78.1,92.5z"/>
<path class="st1" d="M104,91.2l12.3-19.7c1,0.2,2,0.3,3,0.3c8.2,0,14.9-6.7,14.9-14.9c0-3.3-1.1-6.4-3-8.8V12.3c0-1.6-1.3-3-3-3
	h-17.8c-1.6,0-3,1.3-3,3V48c-1.8,2.5-3,5.5-3,8.8c0,5,2.5,9.5,6.4,12.2L98.9,88L104,91.2z M125.3,15.2v28c-1.8-0.8-3.8-1.3-5.9-1.3
	s-4.1,0.5-5.9,1.3v-28H125.3z M112.6,51.1C112.6,51,112.6,51,112.6,51.1c3.5-4,9.9-4,13.4,0c0,0,0,0,0,0c1.4,1.6,2.2,3.6,2.2,5.8
	c0,4.9-4,8.9-8.9,8.9s-8.9-4-8.9-8.9C110.4,54.6,111.2,52.6,112.6,51.1z"/>
</svg>
