<?xml version="1.0" encoding="utf-8"?>
<!-- Generator: Adobe Illustrator 20.0.0, SVG Export Plug-In . SVG Version: 6.00 Build 0)  -->
<svg version="1.1" id="Layer_1" xmlns="http://www.w3.org/2000/svg" xmlns:xlink="http://www.w3.org/1999/xlink" x="0px" y="0px"
	 viewBox="0 0 200 200" style="enable-background:new 0 0 200 200;" xml:space="preserve">
<style type="text/css">
	.st0{fill:#221061;}
	.st1{fill:#FFFFFF;}
</style>
<rect class="st0" width="200" height="200"/>
<path class="st1" d="M13.5,9.5c-2.4,0-4.1,1.6-4.1,4.1V46c0,2.4,1.6,4.1,4.1,4.1H46c2.4,0,4.1-1.6,4.1-4.1V13.5
	c0-2.4-1.6-4.1-4.1-4.1H13.5z M62.2,9.5c-2.4,0-4.1,1.6-4.1,4.1v44.6H13.5c-2.4,0-4.1,1.6-4.1,4.1s1.6,4.1,4.1,4.1h48.6
	c2.4,0,4.1-1.6,4.1-4.1V17.6h28.4c2.4,0,4.1-1.6,4.1-4.1S97,9.5,94.6,9.5H62.2z M110.8,9.5c-2.4,0-4.1,1.6-4.1,4.1s1.6,4.1,4.1,4.1
	h20.3v64.9H78.4c-2.4,0-4.1,1.6-4.1,4.1v16.2c0,2.4,1.6,4.1,4.1,4.1c2.4,0,4.1-1.6,4.1-4.1V90.5h52.7c2.4,0,4.1-1.6,4.1-4.1v-73
	c0-2.4-1.6-4.1-4.1-4.1H110.8z M151.3,9.5c-2.4,0-4.1,1.6-4.1,4.1V46c0,2.4,1.6,4.1,4.1,4.1h32.4c2.4,0,4.1-1.6,4.1-4.1V13.5
	c0-2.4-1.6-4.1-4.1-4.1H151.3z M17.6,17.6h24.3v24.3H17.6V17.6z M155.4,17.6h24.3v24.3h-24.3V17.6z M25.7,25.7v8.1h8.1v-8.1H25.7z
	 M78.4,25.7c-2.4,0-4.1,1.6-4.1,4.1V46c0,2.4,1.6,4.1,4.1,4.1h16.2c2.4,0,4.1-1.6,4.1-4.1V29.7c0-2.4-1.6-4.1-4.1-4.1H78.4z
	 M110.8,25.7c-2.4,0-4.1,1.6-4.1,4.1v28.4H78.4c-2.4,0-4.1,1.6-4.1,4.1v8.1c0,2.4,1.6,4.1,4.1,4.1c2.4,0,4.1-1.6,4.1-4.1v-4.1h28.4
	c2.4,0,4.1-1.6,4.1-4.1V33.8h4.1c2.4,0,4.1-1.6,4.1-4.1s-1.6-4.1-4.1-4.1H110.8z M163.5,25.7v8.1h8.1v-8.1H163.5z M82.4,33.8h8.1
	v8.1h-8.1V33.8z M151.3,58.1c-2.4,0-4.1,1.6-4.1,4.1v52.7c0,2.4,1.6,4.1,4.1,4.1h20.3c2.4,0,4.1-1.6,4.1-4.1c0-2.4-1.6-4.1-4.1-4.1
	h-16.2V66.2h24.3v8.1h-12.2c-2.4,0-4.1,1.6-4.1,4.1c0,2.4,1.6,4.1,4.1,4.1h16.2c2.4,0,4.1-1.6,4.1-4.1V62.2c0-2.4-1.6-4.1-4.1-4.1
	H151.3z M13.5,74.3c-2.4,0-4.1,1.6-4.1,4.1v56.7c0,2.4,1.6,4.1,4.1,4.1h60.8v28.4c0,2.4,1.6,4.1,4.1,4.1c2.4,0,4.1-1.6,4.1-4.1
	v-32.4c0-2.4-1.6-4.1-4.1-4.1H17.6V78.4C17.6,75.9,16,74.3,13.5,74.3z M29.7,74.3c-2.4,0-4.1,1.6-4.1,4.1v8.1c0,2.4,1.6,4.1,4.1,4.1
	s4.1-1.6,4.1-4.1v-4.1h24.3v36.5c0,2.4,1.6,4.1,4.1,4.1h56.7c2.4,0,4.1-1.6,4.1-4.1c0-2.4-1.6-4.1-4.1-4.1H66.2V78.4
	c0-2.4-1.6-4.1-4.1-4.1H29.7z M167.6,94.6c-2.4,0-4.1,1.6-4.1,4.1c0,2.4,1.6,4.1,4.1,4.1h12.2V127h-28.4c-2.4,0-4.1,1.6-4.1,4.1
	v36.5c0,2.4,1.6,4.1,4.1,4.1c2.4,0,4.1-1.6,4.1-4.1v-32.4h28.4c2.4,0,4.1-1.6,4.1-4.1V98.6c0-2.4-1.6-4.1-4.1-4.1H167.6z M29.7,98.6
	c-2.4,0-4.1,1.6-4.1,4.1v16.2c0,2.4,1.6,4.1,4.1,4.1H46c2.4,0,4.1-1.6,4.1-4.1v-16.2c0-2.4-1.6-4.1-4.1-4.1H29.7z M94.6,98.6
	c-2.4,0-4.1,1.6-4.1,4.1c0,2.4,1.6,4.1,4.1,4.1h36.5v77c0,2.4,1.6,4.1,4.1,4.1h32.4c2.4,0,4.1-1.6,4.1-4.1v-32.4h8.1v32.4
	c0,2.4,1.6,4.1,4.1,4.1s4.1-1.6,4.1-4.1v-36.5c0-2.4-1.6-4.1-4.1-4.1h-16.2c-2.4,0-4.1,1.6-4.1,4.1v32.4h-24.3v-77
	c0-2.4-1.6-4.1-4.1-4.1H94.6z M33.8,106.8h8.1v8.1h-8.1V106.8z M94.6,131.1c-2.4,0-4.1,1.6-4.1,4.1v32.4c0,2.4,1.6,4.1,4.1,4.1h20.3
	v8.1h-4.1c-2.4,0-4.1,1.6-4.1,4.1s1.6,4.1,4.1,4.1h8.1c2.4,0,4.1-1.6,4.1-4.1v-16.2c0-2.4-1.6-4.1-4.1-4.1H98.6v-24.3h20.3
	c2.4,0,4.1-1.6,4.1-4.1s-1.6-4.1-4.1-4.1H94.6z M13.5,147.3c-2.4,0-4.1,1.6-4.1,4.1v32.4c0,2.4,1.6,4.1,4.1,4.1H46
	c2.4,0,4.1-1.6,4.1-4.1v-32.4c0-2.4-1.6-4.1-4.1-4.1H13.5z M62.2,147.3c-2.4,0-4.1,1.6-4.1,4.1v32.4c0,2.4,1.6,4.1,4.1,4.1h32.4
	c2.4,0,4.1-1.6,4.1-4.1s-1.6-4.1-4.1-4.1H66.2v-28.4C66.2,148.9,64.6,147.3,62.2,147.3z M110.8,147.3c-2.4,0-4.1,1.6-4.1,4.1
	c0,2.4,1.6,4.1,4.1,4.1h8.1c2.4,0,4.1-1.6,4.1-4.1c0-2.4-1.6-4.1-4.1-4.1H110.8z M17.6,155.4h24.3v24.3H17.6V155.4z M25.7,163.5v8.1
	h8.1v-8.1H25.7z"/>
</svg>
