<?xml version="1.0" encoding="utf-8"?>
<!-- Generator: Adobe Illustrator 20.0.0, SVG Export Plug-In . SVG Version: 6.00 Build 0)  -->
<svg version="1.1" id="Layer_1" xmlns="http://www.w3.org/2000/svg" xmlns:xlink="http://www.w3.org/1999/xlink" x="0px" y="0px"
	 viewBox="0 0 200 200" style="enable-background:new 0 0 200 200;" xml:space="preserve">
<style type="text/css">
	.st0{fill:#221061;}
	.st1{fill:#FFFFFF;}
</style>
<rect class="st0" width="200" height="200"/>
<g>
	<g>
		<path class="st1" d="M28.6,47.7c9.2,0,17-6.6,18.7-15.3h32.6c1.8,8.7,9.5,15.3,18.7,15.3s17-6.6,18.7-15.3H150
			c1.8,8.7,9.5,15.3,18.7,15.3c10.5,0,19.1-8.6,19.1-19.1s-8.6-19.1-19.1-19.1c-9.2,0-17,6.6-18.7,15.3h-32.6
			c-1.8-8.7-9.5-15.3-18.7-15.3s-17,6.6-18.7,15.3H47.4C45.6,16,37.9,9.5,28.6,9.5C18.1,9.5,9.5,18,9.5,28.6S18.1,47.7,28.6,47.7z
			 M168.7,17.1c6.3,0,11.5,5.1,11.5,11.5s-5.1,11.5-11.5,11.5c-5,0-9.2-3.2-10.8-7.6c-0.4-1.2-0.7-2.5-0.7-3.8
			c0-1.3,0.3-2.6,0.7-3.8C159.5,20.3,163.7,17.1,168.7,17.1z M98.7,17.1c5,0,9.2,3.2,10.8,7.6c0.4,1.2,0.7,2.5,0.7,3.8
			c0,1.3-0.3,2.6-0.7,3.8c-1.6,4.4-5.8,7.6-10.8,7.6s-9.2-3.2-10.8-7.6c-0.4-1.2-0.7-2.5-0.7-3.8c0-1.3,0.3-2.6,0.7-3.8
			C89.5,20.3,93.7,17.1,98.7,17.1z M28.6,17.1c5,0,9.2,3.2,10.8,7.6c0.4,1.2,0.7,2.5,0.7,3.8c0,1.3-0.3,2.6-0.7,3.8
			c-1.6,4.4-5.8,7.6-10.8,7.6c-6.3,0-11.5-5.1-11.5-11.5S22.3,17.1,28.6,17.1z"/>
		<circle class="st1" cx="50.3" cy="120.2" r="3.8"/>
		<circle class="st1" cx="59.7" cy="129.6" r="3.8"/>
		<circle class="st1" cx="69" cy="138.9" r="3.8"/>
		<circle class="st1" cx="78.3" cy="148.2" r="3.8"/>
		<circle class="st1" cx="98.7" cy="140.2" r="3.8"/>
		<circle class="st1" cx="98.7" cy="127.9" r="3.8"/>
		<circle class="st1" cx="148.4" cy="49" r="3.8"/>
		<circle class="st1" cx="139.1" cy="58.4" r="3.8"/>
		<circle class="st1" cx="129.8" cy="67.7" r="3.8"/>
		<circle class="st1" cx="120.4" cy="77" r="3.8"/>
		<path class="st1" d="M168.7,79.6c-9.2,0-17,6.6-18.7,15.3h-32.6c-1.8-8.7-9.5-15.3-18.7-15.3s-17,6.6-18.7,15.3H47.4
			c-1.8-8.7-9.5-15.3-18.7-15.3c-10.5,0-19.1,8.6-19.1,19.1s8.6,19.1,19.1,19.1c9.2,0,17-6.6,18.7-15.3h32.6
			c1.8,8.7,9.5,15.3,18.7,15.3s17-6.6,18.7-15.3H150c1.8,8.7,9.5,15.3,18.7,15.3c10.5,0,19.1-8.6,19.1-19.1S179.2,79.6,168.7,79.6z
			 M28.6,110.1c-6.3,0-11.5-5.1-11.5-11.5c0-6.3,5.1-11.5,11.5-11.5c5,0,9.2,3.2,10.8,7.6c0.4,1.2,0.7,2.5,0.7,3.8s-0.3,2.6-0.7,3.8
			C37.8,106.9,33.6,110.1,28.6,110.1z M98.7,110.1c-5,0-9.2-3.2-10.8-7.6c-0.4-1.2-0.7-2.5-0.7-3.8s0.3-2.6,0.7-3.8
			c1.6-4.4,5.8-7.6,10.8-7.6s9.2,3.2,10.8,7.6c0.4,1.2,0.7,2.5,0.7,3.8s-0.3,2.6-0.7,3.8C107.9,106.9,103.6,110.1,98.7,110.1z
			 M168.7,110.1c-5,0-9.2-3.2-10.8-7.6c-0.4-1.2-0.7-2.5-0.7-3.8s0.3-2.6,0.7-3.8c1.6-4.4,5.8-7.6,10.8-7.6
			c6.3,0,11.5,5.1,11.5,11.5C180.2,105,175,110.1,168.7,110.1z"/>
		<path class="st1" d="M168.7,149.6c-9.2,0-17,6.6-18.7,15.3h-32.6c-1.8-8.7-9.5-15.3-18.7-15.3s-17,6.6-18.7,15.3H47.4
			c-1.8-8.7-9.5-15.3-18.7-15.3c-10.5,0-19.1,8.6-19.1,19.1s8.6,19.1,19.1,19.1c9.2,0,17-6.6,18.7-15.3h32.6
			c1.8,8.7,9.5,15.3,18.7,15.3s17-6.6,18.7-15.3H150c1.8,8.7,9.5,15.3,18.7,15.3c10.5,0,19.1-8.6,19.1-19.1S179.2,149.6,168.7,149.6
			z M28.6,180.2c-6.3,0-11.5-5.1-11.5-11.5s5.1-11.5,11.5-11.5c5,0,9.2,3.2,10.8,7.6c0.4,1.2,0.7,2.5,0.7,3.8s-0.3,2.6-0.7,3.8
			C37.8,177,33.6,180.2,28.6,180.2z M98.7,180.2c-5,0-9.2-3.2-10.8-7.6c-0.4-1.2-0.7-2.5-0.7-3.8s0.3-2.6,0.7-3.8
			c1.6-4.4,5.8-7.6,10.8-7.6s9.2,3.2,10.8,7.6c0.4,1.2,0.7,2.5,0.7,3.8s-0.3,2.6-0.7,3.8C107.9,177,103.6,180.2,98.7,180.2z
			 M168.7,180.2c-5,0-9.2-3.2-10.8-7.6c-0.4-1.2-0.7-2.5-0.7-3.8s0.3-2.6,0.7-3.8c1.6-4.4,5.8-7.6,10.8-7.6
			c6.3,0,11.5,5.1,11.5,11.5S175,180.2,168.7,180.2z"/>
	</g>
</g>
</svg>
