<?xml version="1.0" encoding="utf-8"?>
<!-- Generator: Adobe Illustrator 16.0.4, SVG Export Plug-In . SVG Version: 6.00 Build 0)  -->
<!DOCTYPE svg PUBLIC "-//W3C//DTD SVG 1.1//EN" "http://www.w3.org/Graphics/SVG/1.1/DTD/svg11.dtd">
<svg version="1.1" id="Layer_1" xmlns="http://www.w3.org/2000/svg" xmlns:xlink="http://www.w3.org/1999/xlink" x="0px" y="0px"
	 width="351px" height="94px" viewBox="0 0 351 94" enable-background="new 0 0 351 94" xml:space="preserve">
<rect x="3.32" y="16.718" fill="#191C24" width="340" height="63.59"/>
<rect x="7.32" y="12.718" fill="#FFFFFF" stroke="#191C24" stroke-width="2" stroke-linecap="square" stroke-miterlimit="10" width="340" height="63.59"/>
<circle fill="#191C24" cx="170.552" cy="49.23" r="42.308"/>
<g>
	<path fill="#191C24" d="M47.638,29.906c0.28,0.307,0.42,0.714,0.42,1.22v25.24c0,0.507-0.14,0.913-0.42,1.22
		c-0.28,0.307-0.674,0.461-1.18,0.461c-0.507,0-0.907-0.154-1.2-0.461c-0.294-0.307-0.44-0.713-0.44-1.22v-11.44h-16.88v11.44
		c0,0.507-0.147,0.913-0.44,1.22s-0.693,0.461-1.2,0.461c-0.507,0-0.9-0.154-1.18-0.461c-0.28-0.307-0.42-0.713-0.42-1.22v-25.24
		c0-0.506,0.14-0.913,0.42-1.22c0.28-0.306,0.673-0.46,1.18-0.46c0.506,0,0.906,0.154,1.2,0.46c0.293,0.307,0.44,0.714,0.44,1.22v11
		h16.88v-11c0-0.506,0.146-0.913,0.44-1.22c0.293-0.306,0.693-0.46,1.2-0.46C46.964,29.446,47.358,29.6,47.638,29.906z"/>
	<path fill="#191C24" d="M71.177,53.686c0.213,0.24,0.32,0.547,0.32,0.92c0,0.668-0.467,1.281-1.4,1.841
		c-0.96,0.56-1.974,0.979-3.04,1.26c-1.067,0.28-2.107,0.42-3.12,0.42c-3.014,0-5.394-0.894-7.14-2.68
		c-1.747-1.786-2.62-4.253-2.62-7.4c0-2,0.386-3.767,1.16-5.3c0.773-1.533,1.86-2.726,3.26-3.58c1.4-0.853,2.993-1.28,4.78-1.28
		c2.533,0,4.546,0.827,6.04,2.48c1.493,1.654,2.24,3.894,2.24,6.72c0,0.534-0.107,0.92-0.32,1.16c-0.214,0.24-0.56,0.36-1.04,0.36
		h-12.88c0.24,4.587,2.413,6.88,6.52,6.88c1.04,0,1.933-0.141,2.68-0.42c0.747-0.28,1.546-0.66,2.4-1.141
		c0.693-0.399,1.16-0.6,1.4-0.6C70.71,53.326,70.964,53.446,71.177,53.686z M59.317,42.006c-1.027,1.067-1.634,2.574-1.82,4.52
		h11.32c-0.054-1.973-0.547-3.486-1.48-4.54c-0.934-1.053-2.24-1.58-3.92-1.58C61.71,40.406,60.344,40.94,59.317,42.006z"/>
	<path fill="#191C24" d="M77.297,33.206c-0.4-0.373-0.6-0.866-0.6-1.48c0-0.586,0.2-1.066,0.6-1.44c0.4-0.373,0.92-0.56,1.56-0.56
		c0.64,0,1.16,0.187,1.56,0.56c0.4,0.374,0.6,0.854,0.6,1.44c0,0.614-0.2,1.107-0.6,1.48c-0.4,0.374-0.92,0.56-1.56,0.56
		C78.217,33.766,77.697,33.58,77.297,33.206z M77.677,57.626c-0.307-0.28-0.46-0.673-0.46-1.18v-16.88c0-0.506,0.153-0.9,0.46-1.18
		c0.306-0.28,0.7-0.42,1.18-0.42s0.866,0.14,1.16,0.42c0.293,0.28,0.44,0.674,0.44,1.18v16.88c0,0.534-0.147,0.934-0.44,1.2
		c-0.293,0.266-0.68,0.4-1.16,0.4S77.983,57.906,77.677,57.626z"/>
	<path fill="#191C24" d="M104.137,29.886c0.293,0.294,0.44,0.667,0.44,1.12v25.44c0,0.479-0.146,0.866-0.44,1.159
		c-0.293,0.294-0.693,0.441-1.2,0.441c-0.507,0-0.9-0.147-1.18-0.441c-0.28-0.293-0.42-0.68-0.42-1.159v-2.16
		c-0.587,1.228-1.447,2.174-2.58,2.84c-1.134,0.667-2.46,1-3.98,1c-1.707,0-3.214-0.427-4.52-1.28
		c-1.307-0.853-2.32-2.046-3.04-3.58c-0.72-1.533-1.08-3.312-1.08-5.339c0-2,0.36-3.76,1.08-5.28c0.72-1.52,1.733-2.693,3.04-3.52
		c1.306-0.826,2.813-1.24,4.52-1.24c1.52,0,2.846,0.333,3.98,1c1.133,0.667,1.993,1.614,2.58,2.84v-10.72
		c0-0.48,0.14-0.86,0.42-1.14c0.28-0.28,0.673-0.42,1.18-0.42C103.443,29.446,103.843,29.593,104.137,29.886z M99.797,53.506
		c1.026-1.293,1.54-3.126,1.54-5.5c0-2.373-0.514-4.2-1.54-5.48c-1.027-1.28-2.487-1.92-4.38-1.92c-1.894,0-3.367,0.64-4.42,1.92
		c-1.054,1.28-1.58,3.08-1.58,5.4c0,2.374,0.526,4.22,1.58,5.541c1.053,1.319,2.526,1.979,4.42,1.979
		C97.31,55.446,98.77,54.8,99.797,53.506z"/>
	<path fill="#191C24" d="M111.457,33.206c-0.4-0.373-0.6-0.866-0.6-1.48c0-0.586,0.2-1.066,0.6-1.44c0.4-0.373,0.92-0.56,1.56-0.56
		c0.64,0,1.16,0.187,1.56,0.56c0.4,0.374,0.6,0.854,0.6,1.44c0,0.614-0.2,1.107-0.6,1.48c-0.4,0.374-0.92,0.56-1.56,0.56
		C112.376,33.766,111.856,33.58,111.457,33.206z M111.836,57.626c-0.307-0.28-0.46-0.673-0.46-1.18v-16.88
		c0-0.506,0.153-0.9,0.46-1.18c0.306-0.28,0.7-0.42,1.18-0.42s0.866,0.14,1.16,0.42c0.293,0.28,0.44,0.674,0.44,1.18v16.88
		c0,0.534-0.147,0.934-0.44,1.2c-0.293,0.266-0.68,0.4-1.16,0.4S112.143,57.906,111.836,57.626z"/>
</g>
<g>
	<path fill="#191C24" d="M235.5,56.406c-1.934-1.174-3.42-2.84-4.461-5c-1.039-2.16-1.56-4.707-1.56-7.64
		c0-2.96,0.513-5.526,1.54-7.7c1.026-2.173,2.506-3.84,4.439-5c1.934-1.16,4.221-1.74,6.86-1.74s4.927,0.58,6.86,1.74
		c1.934,1.16,3.413,2.827,4.439,5c1.027,2.173,1.541,4.727,1.541,7.66c0,2.934-0.521,5.487-1.561,7.661s-2.527,3.846-4.46,5.02
		c-1.935,1.174-4.207,1.76-6.82,1.76C239.705,58.166,237.433,57.58,235.5,56.406z M249.299,52.346c1.667-2.013,2.5-4.886,2.5-8.62
		c0-3.733-0.826-6.6-2.479-8.6s-3.987-3-7-3c-2.987,0-5.313,1.007-6.979,3.02c-1.667,2.014-2.5,4.874-2.5,8.58
		c0,3.707,0.833,6.574,2.5,8.6c1.666,2.027,3.992,3.04,6.979,3.04C245.306,55.366,247.633,54.359,249.299,52.346z"/>
	<path fill="#191C24" d="M261.859,57.626c-0.307-0.28-0.46-0.673-0.46-1.18v-25.4c0-0.506,0.153-0.9,0.46-1.18s0.7-0.42,1.18-0.42
		c0.453,0,0.834,0.14,1.141,0.42s0.46,0.674,0.46,1.18v25.4c0,0.507-0.153,0.899-0.46,1.18s-0.688,0.421-1.141,0.421
		C262.56,58.047,262.166,57.906,261.859,57.626z"/>
	<path fill="#191C24" d="M274.539,57.686c-1.107-0.293-2.087-0.705-2.939-1.239c-0.48-0.32-0.82-0.62-1.021-0.899
		c-0.2-0.281-0.3-0.621-0.3-1.021c0-0.347,0.1-0.634,0.3-0.86s0.46-0.34,0.78-0.34s0.785,0.2,1.399,0.6
		c0.8,0.48,1.593,0.86,2.38,1.141c0.787,0.279,1.767,0.42,2.94,0.42c1.44,0,2.56-0.254,3.36-0.76c0.799-0.507,1.199-1.24,1.199-2.2
		c0-0.587-0.146-1.06-0.439-1.421c-0.294-0.359-0.801-0.68-1.52-0.959c-0.721-0.28-1.774-0.566-3.16-0.86
		c-2.348-0.506-4.027-1.186-5.041-2.04c-1.014-0.853-1.52-2.013-1.52-3.48c0-1.146,0.32-2.16,0.96-3.04s1.526-1.573,2.66-2.08
		c1.133-0.506,2.42-0.76,3.86-0.76c1.039,0,2.046,0.14,3.02,0.42c0.973,0.28,1.833,0.674,2.58,1.18c0.906,0.64,1.359,1.307,1.359,2
		c0,0.347-0.106,0.64-0.319,0.88c-0.214,0.24-0.467,0.36-0.761,0.36c-0.319,0-0.799-0.226-1.439-0.68
		c-0.746-0.48-1.453-0.854-2.12-1.12c-0.667-0.266-1.493-0.4-2.479-0.4c-1.254,0-2.26,0.28-3.021,0.84
		c-0.76,0.56-1.14,1.307-1.14,2.24c0,0.587,0.14,1.06,0.42,1.42c0.279,0.36,0.746,0.68,1.4,0.96c0.652,0.28,1.593,0.554,2.819,0.82
		c1.813,0.4,3.22,0.84,4.22,1.32s1.713,1.067,2.141,1.761c0.426,0.693,0.64,1.573,0.64,2.64c0,1.68-0.706,3.034-2.12,4.06
		c-1.414,1.027-3.279,1.54-5.6,1.54C276.812,58.126,275.645,57.979,274.539,57.686z"/>
	<path fill="#191C24" d="M307.318,53.686c0.214,0.24,0.32,0.547,0.32,0.92c0,0.668-0.467,1.281-1.4,1.841
		c-0.959,0.56-1.973,0.979-3.039,1.26s-2.107,0.42-3.12,0.42c-3.014,0-5.394-0.894-7.14-2.68c-1.748-1.786-2.621-4.253-2.621-7.4
		c0-2,0.387-3.767,1.16-5.3c0.773-1.533,1.86-2.726,3.26-3.58c1.4-0.853,2.994-1.28,4.781-1.28c2.533,0,4.546,0.827,6.039,2.48
		c1.494,1.654,2.24,3.894,2.24,6.72c0,0.534-0.107,0.92-0.32,1.16c-0.213,0.24-0.56,0.36-1.039,0.36h-12.881
		c0.24,4.587,2.414,6.88,6.521,6.88c1.04,0,1.933-0.141,2.68-0.42c0.747-0.28,1.546-0.66,2.4-1.141c0.692-0.399,1.159-0.6,1.399-0.6
		C306.852,53.326,307.105,53.446,307.318,53.686z M295.459,42.006c-1.027,1.067-1.634,2.574-1.82,4.52h11.32
		c-0.054-1.973-0.547-3.486-1.48-4.54c-0.934-1.053-2.24-1.58-3.92-1.58C297.852,40.406,296.485,40.94,295.459,42.006z"/>
	<path fill="#191C24" d="M330.158,45.606v10.84c0,0.507-0.14,0.899-0.42,1.18c-0.279,0.28-0.674,0.421-1.18,0.421
		c-0.507,0-0.907-0.141-1.2-0.421c-0.294-0.28-0.44-0.673-0.44-1.18v-10.64c0-1.813-0.354-3.133-1.06-3.96
		c-0.707-0.826-1.834-1.24-3.38-1.24c-1.787,0-3.214,0.547-4.28,1.64c-1.067,1.094-1.6,2.574-1.6,4.44v9.76
		c0,0.507-0.14,0.899-0.421,1.18c-0.279,0.28-0.673,0.421-1.18,0.421c-0.506,0-0.906-0.141-1.199-0.421
		c-0.294-0.28-0.44-0.673-0.44-1.18v-16.88c0-0.48,0.146-0.867,0.44-1.16c0.293-0.293,0.693-0.44,1.199-0.44
		c0.48,0,0.86,0.147,1.141,0.44c0.279,0.293,0.42,0.667,0.42,1.12v2.04c0.64-1.2,1.533-2.113,2.68-2.74
		c1.146-0.626,2.453-0.94,3.92-0.94C327.824,37.886,330.158,40.46,330.158,45.606z"/>
</g>
<circle fill="#CAE8E3" stroke="#191C24" stroke-width="2" stroke-miterlimit="10" cx="174.552" cy="45.23" r="42.308"/>
<g>
	<path fill="#181B23" d="M202.722,12.879c0.708,0.736,1.062,1.712,1.062,2.926v60.541c0,1.216-0.354,2.191-1.062,2.926
		c-0.708,0.735-1.703,1.104-2.982,1.104c-1.28,0-2.292-0.368-3.032-1.104c-0.742-0.734-1.111-1.71-1.111-2.926v-27.44h-42.656v27.44
		c0,1.216-0.371,2.191-1.112,2.926c-0.742,0.735-1.752,1.104-3.032,1.104c-1.28,0-2.274-0.368-2.981-1.104
		c-0.708-0.734-1.062-1.71-1.062-2.926V15.806c0-1.214,0.354-2.19,1.062-2.926c0.708-0.735,1.701-1.104,2.981-1.104
		c1.28,0,2.291,0.369,3.032,1.104c0.742,0.736,1.112,1.712,1.112,2.926V42.19h42.656V15.806c0-1.214,0.369-2.19,1.111-2.926
		c0.74-0.735,1.752-1.104,3.032-1.104C201.019,11.776,202.014,12.145,202.722,12.879z"/>
</g>
</svg>
