<?xml version="1.0" encoding="utf-8"?>
<!-- Generator: Adobe Illustrator 16.0.4, SVG Export Plug-In . SVG Version: 6.00 Build 0)  -->
<!DOCTYPE svg PUBLIC "-//W3C//DTD SVG 1.1//EN" "http://www.w3.org/Graphics/SVG/1.1/DTD/svg11.dtd">
<svg version="1.1" id="Layer_1" xmlns="http://www.w3.org/2000/svg" xmlns:xlink="http://www.w3.org/1999/xlink" x="0px" y="0px"
	 width="199px" height="49px" viewBox="0 0 199 49" enable-background="new 0 0 199 49" xml:space="preserve">
<g>
	<linearGradient id="SVGID_1_" gradientUnits="userSpaceOnUse" x1="104.4941" y1="32.5859" x2="118.8281" y2="32.5859">
		<stop  offset="0" style="stop-color:#B8D254"/>
		<stop  offset="1" style="stop-color:#599140"/>
	</linearGradient>
	<path fill="url(#SVGID_1_)" d="M104.494,36.167c0,0,9.344-0.776,14.334-7.152C118.828,29.015,109.541,28.413,104.494,36.167z"/>
	<linearGradient id="SVGID_2_" gradientUnits="userSpaceOnUse" x1="106.8887" y1="40.8867" x2="123.6152" y2="40.8867">
		<stop  offset="0" style="stop-color:#B8D254"/>
		<stop  offset="1" style="stop-color:#599140"/>
	</linearGradient>
	<path fill="url(#SVGID_2_)" d="M106.889,36.198c0,0,11.127,1.467,16.727,9.376C123.615,45.574,112.477,45.759,106.889,36.198z"/>
	<linearGradient id="SVGID_3_" gradientUnits="userSpaceOnUse" x1="96.4492" y1="41.459" x2="116.2188" y2="41.459">
		<stop  offset="0" style="stop-color:#345B2C"/>
		<stop  offset="1" style="stop-color:#599140"/>
	</linearGradient>
	<path fill="url(#SVGID_3_)" d="M96.449,35.919c0,0,13.15,1.733,19.77,11.081C116.219,47,103.053,47.218,96.449,35.919z"/>
	<linearGradient id="SVGID_4_" gradientUnits="userSpaceOnUse" x1="86.5435" y1="40.5518" x2="103.2715" y2="40.5518">
		<stop  offset="0" style="stop-color:#B8D254"/>
		<stop  offset="1" style="stop-color:#599140"/>
	</linearGradient>
	<path fill="url(#SVGID_4_)" d="M86.543,35.863c0,0,11.126,1.468,16.728,9.377C103.271,45.24,92.133,45.424,86.543,35.863z"/>
	<linearGradient id="SVGID_5_" gradientUnits="userSpaceOnUse" x1="75.9883" y1="40.6719" x2="92.9219" y2="40.6719">
		<stop  offset="0" style="stop-color:#345B2C"/>
		<stop  offset="1" style="stop-color:#599140"/>
	</linearGradient>
	<path fill="url(#SVGID_5_)" d="M75.988,35.925c0,0,11.268,1.487,16.934,9.494C92.922,45.419,81.645,45.605,75.988,35.925z"/>
	<linearGradient id="SVGID_6_" gradientUnits="userSpaceOnUse" x1="64.749" y1="41.0527" x2="81.2515" y2="41.0527">
		<stop  offset="0" style="stop-color:#345B2C"/>
		<stop  offset="1" style="stop-color:#599140"/>
	</linearGradient>
	<path fill="url(#SVGID_6_)" d="M64.749,36.426c0,0,10.978,1.448,16.502,9.253C81.251,45.679,70.262,45.86,64.749,36.426z"/>
	<linearGradient id="SVGID_7_" gradientUnits="userSpaceOnUse" x1="93.7734" y1="31.6797" x2="110.9316" y2="31.6797">
		<stop  offset="0" style="stop-color:#B8D254"/>
		<stop  offset="1" style="stop-color:#599140"/>
	</linearGradient>
	<path fill="url(#SVGID_7_)" d="M93.773,35.967c0,0,11.186-0.932,17.158-8.562C110.932,27.404,99.814,26.686,93.773,35.967z"/>
	<linearGradient id="SVGID_8_" gradientUnits="userSpaceOnUse" x1="82.771" y1="30.7402" x2="103.248" y2="30.7402">
		<stop  offset="0" style="stop-color:#345B2C"/>
		<stop  offset="1" style="stop-color:#599140"/>
	</linearGradient>
	<path fill="url(#SVGID_8_)" d="M82.771,35.856c0,0,13.348-1.109,20.477-10.216C103.248,25.641,89.979,24.779,82.771,35.856z"/>
	<linearGradient id="SVGID_9_" gradientUnits="userSpaceOnUse" x1="72.0415" y1="32.3281" x2="86.5474" y2="32.3281">
		<stop  offset="0" style="stop-color:#B8D254"/>
		<stop  offset="1" style="stop-color:#599140"/>
	</linearGradient>
	<path fill="url(#SVGID_9_)" d="M72.042,35.954c0,0,9.456-0.788,14.506-7.24C86.547,28.714,77.145,28.107,72.042,35.954z"/>
	<linearGradient id="SVGID_10_" gradientUnits="userSpaceOnUse" x1="60.4209" y1="32.5488" x2="77.5791" y2="32.5488">
		<stop  offset="0" style="stop-color:#B8D254"/>
		<stop  offset="1" style="stop-color:#599140"/>
	</linearGradient>
	<path fill="url(#SVGID_10_)" d="M60.421,36.837c0,0,11.186-0.935,17.158-8.563C77.579,28.273,66.462,27.555,60.421,36.837z"/>
	<linearGradient id="SVGID_11_" gradientUnits="userSpaceOnUse" x1="111.0703" y1="37.1416" x2="130.1543" y2="37.1416">
		<stop  offset="0" style="stop-color:#345B2C"/>
		<stop  offset="1" style="stop-color:#599140"/>
	</linearGradient>
	<path fill="url(#SVGID_11_)" d="M111.07,36.493c0,0,9.969,5.161,19.084,1.872C130.154,38.365,121.121,31.846,111.07,36.493z"/>
	<g>
		
			<path fill="none" stroke="#398F43" stroke-width="0.8183" stroke-linecap="round" stroke-linejoin="round" stroke-miterlimit="10" d="
			M120.465,36.896c0,0-46.07-2.505-65.997,0.672"/>
	</g>
</g>
<g>
	<g>
		<path fill="#25215F" d="M33.346,6.512c-0.328,0.147-0.551,0.418-0.67,0.814c-0.119,0.396-0.178,1.029-0.178,1.9v17.235
			c0,0.871,0.062,1.505,0.187,1.9c0.125,0.396,0.351,0.667,0.679,0.814c0.328,0.146,0.859,0.237,1.594,0.271v0.695
			c-1.232-0.067-3.178-0.102-5.835-0.102c-2.669,0-4.716,0.034-6.141,0.102v-0.695c0.747-0.034,1.284-0.125,1.612-0.271
			c0.328-0.147,0.551-0.416,0.67-0.806c0.119-0.391,0.178-1.026,0.178-1.909v-8.346h-7.82v8.346c0,0.871,0.062,1.505,0.187,1.9
			c0.125,0.396,0.354,0.667,0.687,0.814c0.333,0.146,0.868,0.237,1.603,0.271v0.695c-1.357-0.067-3.291-0.102-5.802-0.102
			c-2.805,0-4.869,0.034-6.191,0.102v-0.695c0.746-0.034,1.286-0.125,1.62-0.271c0.333-0.147,0.56-0.418,0.679-0.814
			c0.119-0.396,0.178-1.029,0.178-1.9V9.226c0-0.871-0.062-1.504-0.187-1.9C10.269,6.93,10.04,6.659,9.707,6.512
			C9.373,6.365,8.838,6.274,8.104,6.24V5.545c1.323,0.068,3.387,0.102,6.191,0.102c2.511,0,4.445-0.034,5.802-0.102V6.24
			c-0.746,0.034-1.287,0.125-1.62,0.271s-0.56,0.418-0.678,0.814c-0.119,0.396-0.178,1.029-0.178,1.9v8.193h7.82V9.226
			c0-0.871-0.06-1.504-0.178-1.9s-0.345-0.667-0.678-0.814C24.25,6.365,23.716,6.274,22.98,6.24V5.545
			c1.425,0.068,3.472,0.102,6.141,0.102c2.646,0,4.591-0.034,5.835-0.102V6.24C34.211,6.274,33.673,6.365,33.346,6.512z"/>
		<path fill="#25215F" d="M42.29,20.66c0,2.228,0.387,3.813,1.162,4.758c0.774,0.944,1.722,1.417,2.841,1.417
			c1.685,0,3.087-0.774,4.207-2.324l0.594,0.221c-0.328,1.029-0.803,1.987-1.425,2.875s-1.425,1.614-2.409,2.18
			s-2.126,0.849-3.427,0.849c-2.432,0-4.38-0.755-5.844-2.265c-1.465-1.51-2.197-3.916-2.197-7.219c0-2.148,0.384-3.936,1.153-5.36
			s1.824-2.477,3.164-3.155s2.881-1.018,4.623-1.018c4.377,0,6.565,2.595,6.565,7.786h-8.974
			C42.301,19.676,42.29,20.094,42.29,20.66z M45.827,14.205c-0.289-1.182-0.738-1.773-1.349-1.773c-0.633,0-1.143,0.498-1.527,1.493
			s-0.633,2.601-0.746,4.817h4.02C46.249,16.899,46.116,15.387,45.827,14.205z"/>
		<path fill="#25215F" d="M60.786,28.43c0.124,0.361,0.328,0.616,0.611,0.763c0.282,0.147,0.667,0.221,1.153,0.221v0.729
			c-2.488-0.091-4.134-0.136-4.937-0.136c-0.803,0-2.539,0.045-5.208,0.136v-0.729c0.486,0,0.871-0.073,1.154-0.221
			c0.282-0.146,0.486-0.401,0.61-0.763c0.125-0.362,0.187-0.865,0.187-1.511V15.893c0-1.075-0.147-1.852-0.441-2.333
			c-0.294-0.481-0.797-0.721-1.51-0.721V12.11c0.735,0.068,1.453,0.102,2.154,0.102c2.409,0,4.422-0.159,6.04-0.475v15.182
			C60.6,27.564,60.662,28.067,60.786,28.43z M60.074,3.729c0.656,0.509,0.984,1.255,0.984,2.239c0,0.973-0.328,1.713-0.984,2.223
			c-0.656,0.509-1.589,0.763-2.799,0.763c-1.233,0-2.171-0.251-2.816-0.755c-0.645-0.503-0.967-1.247-0.967-2.231
			s0.322-1.73,0.967-2.239c0.645-0.509,1.583-0.763,2.816-0.763C58.484,2.966,59.417,3.221,60.074,3.729z"/>
		<path fill="#25215F" d="M81.716,28.658c0.288,0.48,0.789,0.721,1.501,0.721v0.729c-0.724-0.067-1.442-0.102-2.154-0.102
			c-2.398,0-4.411,0.158-6.039,0.475v-2.459c-0.475,0.904-1.046,1.566-1.713,1.984c-0.667,0.418-1.51,0.628-2.528,0.628
			c-1.38,0-2.601-0.34-3.664-1.019c-1.063-0.678-1.9-1.735-2.511-3.172c-0.611-1.436-0.916-3.251-0.916-5.445
			c0-2.047,0.316-3.771,0.95-5.174c0.633-1.402,1.526-2.454,2.68-3.155c1.153-0.701,2.516-1.052,4.088-1.052
			c1.515,0,2.72,0.294,3.613,0.882V7.14c0-1.074-0.147-1.852-0.441-2.333c-0.294-0.481-0.797-0.721-1.51-0.721V3.356
			c0.724,0.068,1.442,0.102,2.155,0.102c2.431,0,4.45-0.164,6.056-0.492v23.36C81.283,27.4,81.427,28.178,81.716,28.658z
			 M73.395,12.771c-1.075,0-1.877,0.687-2.409,2.061s-0.797,3.469-0.797,6.286c0,2.85,0.209,4.846,0.628,5.988
			c0.418,1.142,0.989,1.713,1.713,1.713c0.43,0,0.833-0.107,1.213-0.322c0.378-0.215,0.687-0.512,0.924-0.891
			c0.238-0.379,0.356-0.806,0.356-1.28V13.229C74.514,12.924,73.972,12.771,73.395,12.771z"/>
		<path fill="#25215F" d="M92.365,28.43c0.124,0.361,0.328,0.616,0.611,0.763c0.282,0.147,0.667,0.221,1.153,0.221v0.729
			c-2.488-0.091-4.134-0.136-4.937-0.136c-0.803,0-2.539,0.045-5.208,0.136v-0.729c0.486,0,0.871-0.073,1.154-0.221
			c0.282-0.146,0.486-0.401,0.61-0.763c0.125-0.362,0.187-0.865,0.187-1.511V15.893c0-1.075-0.147-1.852-0.441-2.333
			c-0.294-0.481-0.797-0.721-1.51-0.721V12.11c0.735,0.068,1.453,0.102,2.154,0.102c2.409,0,4.422-0.159,6.04-0.475v15.182
			C92.179,27.564,92.241,28.067,92.365,28.43z M91.653,3.729c0.656,0.509,0.984,1.255,0.984,2.239c0,0.973-0.328,1.713-0.984,2.223
			c-0.656,0.509-1.589,0.763-2.799,0.763c-1.233,0-2.171-0.251-2.816-0.755c-0.645-0.503-0.967-1.247-0.967-2.231
			s0.322-1.73,0.967-2.239c0.645-0.509,1.583-0.763,2.816-0.763C90.063,2.966,90.997,3.221,91.653,3.729z"/>
		<path fill="#25215F" d="M122.706,6.546c1.968,0.995,3.494,2.44,4.58,4.334c1.086,1.895,1.629,4.148,1.629,6.76
			c0,2.556-0.558,4.818-1.671,6.786c-1.114,1.968-2.667,3.494-4.657,4.58s-4.258,1.629-6.802,1.629c-2.624,0-4.92-0.498-6.888-1.493
			s-3.495-2.439-4.58-4.334c-1.086-1.895-1.629-4.147-1.629-6.76c0-2.556,0.558-4.818,1.671-6.786
			c1.114-1.968,2.663-3.495,4.648-4.58c1.984-1.086,4.255-1.629,6.811-1.629C118.442,5.053,120.738,5.551,122.706,6.546z
			 M112.681,7.233c-0.86,1.035-1.524,2.477-1.993,4.326c-0.47,1.849-0.704,3.967-0.704,6.353c0,2.398,0.266,4.515,0.797,6.353
			s1.25,3.254,2.154,4.249c0.905,0.996,1.9,1.493,2.986,1.493c1.142,0,2.143-0.518,3.002-1.552c0.859-1.035,1.524-2.478,1.993-4.326
			c0.47-1.849,0.704-3.967,0.704-6.353c0-2.397-0.266-4.515-0.797-6.353c-0.532-1.838-1.25-3.254-2.154-4.25
			c-0.905-0.995-1.9-1.493-2.986-1.493C114.54,5.681,113.54,6.198,112.681,7.233z"/>
		<path fill="#25215F" d="M138.268,28.43c0.124,0.361,0.327,0.616,0.61,0.763c0.282,0.147,0.667,0.221,1.153,0.221v0.729
			c-2.488-0.091-4.134-0.136-4.937-0.136s-2.539,0.045-5.208,0.136v-0.729c0.486,0,0.871-0.073,1.154-0.221
			c0.282-0.146,0.485-0.401,0.61-0.763c0.124-0.362,0.187-0.865,0.187-1.511V7.14c0-1.074-0.147-1.852-0.441-2.333
			c-0.294-0.481-0.797-0.721-1.51-0.721V3.356c0.724,0.068,1.442,0.102,2.154,0.102c2.432,0,4.445-0.164,6.04-0.492v23.953
			C138.081,27.564,138.143,28.067,138.268,28.43z"/>
		<path fill="#25215F" d="M143.148,26.732c0.401,0.95,0.922,1.691,1.561,2.223s1.371,0.797,2.197,0.797
			c0.588,0,1.071-0.161,1.45-0.483s0.568-0.794,0.568-1.416c0-0.645-0.133-1.225-0.398-1.739c-0.267-0.514-0.592-0.972-0.976-1.374
			c-0.385-0.401-1.001-0.986-1.85-1.756c-0.983-0.904-1.728-1.622-2.23-2.154c-0.503-0.531-0.936-1.15-1.298-1.857
			c-0.362-0.707-0.543-1.49-0.543-2.349c0-0.995,0.3-1.872,0.899-2.63c0.6-0.757,1.396-1.343,2.392-1.755
			c0.995-0.413,2.075-0.619,3.24-0.619c0.916,0,1.767,0.099,2.553,0.297s1.395,0.416,1.824,0.653
			c0.237,0.136,0.446,0.204,0.628,0.204c0.463,0,0.752-0.373,0.865-1.12h0.695c-0.091,1.21-0.136,3.297-0.136,6.26h-0.695
			c-0.182-1.516-0.614-2.802-1.298-3.859c-0.685-1.057-1.677-1.586-2.978-1.586c-0.588,0-1.077,0.175-1.468,0.526
			c-0.39,0.351-0.585,0.82-0.585,1.408c0,0.78,0.26,1.467,0.78,2.061s1.134,1.165,1.841,1.713c0.707,0.549,1.224,0.958,1.552,1.23
			c0.859,0.713,1.544,1.329,2.053,1.85c0.509,0.52,0.919,1.11,1.23,1.772c0.311,0.661,0.466,1.411,0.466,2.248
			c0,1.028-0.313,1.953-0.941,2.773c-0.627,0.819-1.476,1.456-2.544,1.908c-1.069,0.452-2.242,0.679-3.521,0.679
			c-1.447,0-2.641-0.295-3.579-0.883c-0.746-0.384-1.329-0.576-1.747-0.576c-0.441,0-0.764,0.401-0.967,1.204h-0.696
			c0.091-1.323,0.136-3.636,0.136-6.938h0.695C142.473,24.686,142.747,25.783,143.148,26.732z"/>
		<path fill="#25215F" d="M163.587,20.66c0,2.228,0.388,3.813,1.162,4.758s1.722,1.417,2.842,1.417c1.685,0,3.087-0.774,4.207-2.324
			l0.594,0.221c-0.328,1.029-0.804,1.987-1.425,2.875c-0.622,0.888-1.426,1.614-2.409,2.18c-0.984,0.565-2.127,0.849-3.427,0.849
			c-2.432,0-4.38-0.755-5.844-2.265c-1.465-1.51-2.197-3.916-2.197-7.219c0-2.148,0.385-3.936,1.153-5.36
			c0.77-1.425,1.824-2.477,3.164-3.155s2.881-1.018,4.623-1.018c4.376,0,6.564,2.595,6.564,7.786h-8.974
			C163.599,19.676,163.587,20.094,163.587,20.66z M167.124,14.205c-0.288-1.182-0.738-1.773-1.349-1.773
			c-0.634,0-1.143,0.498-1.526,1.493c-0.385,0.995-0.634,2.601-0.747,4.817h4.021C167.545,16.899,167.412,15.387,167.124,14.205z"/>
		<path fill="#25215F" d="M187.087,11.618c1.843,0,3.149,0.464,3.918,1.391c0.351,0.419,0.608,0.981,0.772,1.688
			c0.164,0.707,0.246,1.643,0.246,2.808v9.415c0,0.646,0.062,1.148,0.187,1.511c0.124,0.361,0.325,0.616,0.603,0.763
			c0.276,0.147,0.658,0.221,1.145,0.221v0.729c-2.488-0.091-4.105-0.136-4.852-0.136c-0.803,0-2.448,0.045-4.937,0.136v-0.729
			c0.407,0,0.724-0.073,0.95-0.221c0.226-0.146,0.39-0.398,0.491-0.755c0.103-0.356,0.153-0.862,0.153-1.519V15.622
			c0-0.747-0.136-1.298-0.407-1.654c-0.271-0.356-0.701-0.534-1.289-0.534c-0.431,0-0.837,0.107-1.222,0.322
			s-0.695,0.512-0.933,0.891c-0.238,0.379-0.356,0.806-0.356,1.281v10.992c0,0.646,0.051,1.148,0.152,1.511
			c0.102,0.361,0.269,0.616,0.501,0.763c0.231,0.147,0.551,0.221,0.958,0.221v0.729c-2.353-0.091-3.885-0.136-4.597-0.136
			c-0.804,0-2.539,0.045-5.208,0.136v-0.729c0.485,0,0.87-0.073,1.153-0.221c0.282-0.146,0.486-0.401,0.61-0.763
			c0.124-0.362,0.187-0.865,0.187-1.511V15.893c0-1.075-0.146-1.852-0.44-2.333c-0.295-0.481-0.798-0.721-1.51-0.721V12.11
			c0.734,0.068,1.453,0.102,2.154,0.102c2.408,0,4.422-0.159,6.039-0.475v2.494C182.608,12.489,184.451,11.618,187.087,11.618z"/>
	</g>
</g>
</svg>
