<?xml version="1.0" encoding="utf-8"?>
<!-- Generator: Adobe Illustrator 16.0.4, SVG Export Plug-In . SVG Version: 6.00 Build 0)  -->
<!DOCTYPE svg PUBLIC "-//W3C//DTD SVG 1.1//EN" "http://www.w3.org/Graphics/SVG/1.1/DTD/svg11.dtd">
<svg version="1.1" id="OBJECTS" xmlns="http://www.w3.org/2000/svg" xmlns:xlink="http://www.w3.org/1999/xlink" x="0px" y="0px"
	 width="613.635px" height="313.875px" viewBox="0 0 613.635 313.875" enable-background="new 0 0 613.635 313.875"
	 xml:space="preserve">
<g>
	<defs>
		<rect id="SVGID_1_" x="6.649" y="0.179" width="607.608" height="313.66"/>
	</defs>
	<clipPath id="SVGID_2_">
		<use xlink:href="#SVGID_1_"  overflow="visible"/>
	</clipPath>
	<g opacity="0.1" clip-path="url(#SVGID_2_)">
		<path fill="#8061E7" d="M672.943,367.576V55.451c-49.341-20.727-122.819-31.633-171.406-24.548
			c-63.661,8.162-89.366,80.375-136.703,122.82c-71.908,66.377-256.966,130.883-221.259,213.854H672.943z"/>
	</g>
	<g opacity="0.1" clip-path="url(#SVGID_2_)">
		<path fill="#8061E7" d="M677.968,355.851V-7.882c-11.092,0.066-21.599,0.759-31.14,2.15
			c-63.662,8.162-96.362,73.253-140.92,118.604C266.517,356.524-14.692,243.404-12.858,355.851H677.968z"/>
	</g>
	<g clip-path="url(#SVGID_2_)">
		<g>
			<g>
				
					<linearGradient id="SVGID_3_" gradientUnits="userSpaceOnUse" x1="382.3213" y1="38.3882" x2="495.0032" y2="196.4178" gradientTransform="matrix(0.5132 0.8583 -0.8583 0.5132 405.0436 -228.7659)">
					<stop  offset="0" style="stop-color:#275D4D"/>
					<stop  offset="1" style="stop-color:#142D2A"/>
				</linearGradient>
				<path fill="url(#SVGID_3_)" d="M545.62,286.269c14.578-7.404,26.82,1.01,33.699-18.179c8.433-25.36-35.941-29.315-8.908-41.209
					c24.91-10.96,26.293-32.764,18.389-37.213c-7.905-4.45-25.275-0.618-18.979-17.491c4.752-13.98,22.61-21.383,14.049-37.896
					c-7.405-14.578-32.388-17.994-42.538-5.372c-7.73,7.897-3.132,28.746-7.859,29.609c-4.729,0.861-23.012-10.762-30.782,3.328
					c-6.43,11.654,10.494,17.636,11.339,32.204c1.128,18.331-14.952,9.117-19.955-0.345c-8.083-13.518-16.544-15.736-29.922-4.525
					c-17.776,14.899,1.843,27.185,6.055,44.945c4.217,17.76-6.586,43.433,26.227,59.038
					C521.032,304.863,533.937,291.948,545.62,286.269z"/>
			</g>
			<g>
				<path fill="none" stroke="#142D2A" stroke-width="1.3742" stroke-miterlimit="10" d="M549.2,159.148
					c0,0-36.935,106.937-52.768,134.016"/>
				<path fill="none" stroke="#142D2A" stroke-width="1.3742" stroke-miterlimit="10" d="M484.226,212.936
					c0,0,19.978,33.42,25.531,49.846"/>
				<path fill="none" stroke="#142D2A" stroke-width="1.3742" stroke-miterlimit="10" d="M558.312,258.301
					c0,0-37.398,5.283-54.312,18.062"/>
				<path fill="none" stroke="#142D2A" stroke-width="1.3742" stroke-miterlimit="10" d="M572.919,203.246
					c0,0-31.81,3.969-44.946,15.024"/>
				<path fill="none" stroke="#142D2A" stroke-width="1.3742" stroke-miterlimit="10" d="M520.092,173.121
					c0,0,12.1,11.138,15.3,23.636"/>
			</g>
		</g>
		<g>
			<g>
				
					<linearGradient id="SVGID_4_" gradientUnits="userSpaceOnUse" x1="214.0176" y1="359.4097" x2="370.5559" y2="578.9453" gradientTransform="matrix(-0.3486 0.9373 0.9373 0.3486 58.6772 -197.1711)">
					<stop  offset="0" style="stop-color:#275D4D"/>
					<stop  offset="1" style="stop-color:#142D2A"/>
				</linearGradient>
				<path fill="url(#SVGID_4_)" d="M394.149,351.375c-21.782-6.433-36.381,8.152-50.621-16.325
					c-17.926-32.513,41.69-49.121,1.76-58.543c-36.794-8.682-44.188-38.116-34.517-46.191c9.677-8.075,34.373-7.226,21.51-28.688
					c-10.021-17.897-36.286-23.502-28.761-48.22c6.435-21.785,39.701-32.76,56.754-18.082c12.555,8.838,11.539,38.479,18.213,38.463
					c6.677-0.019,28.719-20.512,42.892-3.228c11.728,14.3-9.881,26.742-7.357,46.859c3.09,25.327,22.728,8.679,27.175-5.512
					c7.627-20.507,18.622-25.676,39.731-13.737c28.047,15.863,4.349,37.601,3.076,62.928c-1.275,25.327,19.966,57.666-20.918,87.272
					C432.437,370.565,411.546,356.181,394.149,351.375z"/>
			</g>
			<g>
				<path fill="none" stroke="#142D2A" stroke-width="1.9091" stroke-miterlimit="10" d="M357.163,178.623
					c0,0,77.456,136.757,105.923,169.75"/>
				<path fill="none" stroke="#142D2A" stroke-width="1.9091" stroke-miterlimit="10" d="M459.502,235.693
					c0,0-18.852,50.698-22.288,74.541"/>
				<path fill="none" stroke="#142D2A" stroke-width="1.9091" stroke-miterlimit="10" d="M369.75,316.373
					c0,0,52.427-2.227,78.756,10.96"/>
				<path fill="none" stroke="#142D2A" stroke-width="1.9091" stroke-miterlimit="10" d="M335.895,244.852
					c0,0,44.456-2.61,65.193,9.175"/>
				<path fill="none" stroke="#142D2A" stroke-width="1.9091" stroke-miterlimit="10" d="M400.452,190.361
					c0,0-13.714,18.271-14.932,36.15"/>
			</g>
		</g>
		<g>
			<g>
				
					<linearGradient id="SVGID_5_" gradientUnits="userSpaceOnUse" x1="-366.5142" y1="405.9458" x2="-223.8817" y2="605.9792" gradientTransform="matrix(0.7622 0.6473 -0.6473 0.7622 1156.6178 24.8659)">
					<stop  offset="0" style="stop-color:#599019"/>
					<stop  offset="1" style="stop-color:#2D5A05"/>
				</linearGradient>
				<path fill="url(#SVGID_5_)" d="M660.427,306.201c16.752-14.853,49.709-9.747,42.027-35.612
					c-14.432-33.917-80.946-20.535-47.342-45.869c26.962-23.347,22.953-49.703,2.161-52.227
					c-7.846-0.951-22.184,9.589-21.377-13.259c0.06-18.74,6.018-34.929-11.563-51.268c-17.653-14.491-28.479-8.387-27.821,10.928
					c-0.646,12.648,7.661,35.815,2.615,38.78c-4.884,2.968-25.785-3.521-36.011,16.58c-8.666,16.635,12.16,16.903,11.899,34.062
					c-0.096,21.56-20.9,17.065-26.003,7.74c-8.51-12.941-26.749-16.367-43.177,2.572c-20.109,25.161,5.409,36.129,11.61,55.741
					c5.195,19.616,3.986,54.874,77.509,60.214C646.491,338.585,645.47,317.793,660.427,306.201z"/>
			</g>
			<g>
				<path fill="none" stroke="#2D5A05" stroke-width="1.7439" stroke-miterlimit="10" d="M614.683,152.007
					c-0.984-0.003,0.184,8.97-3.364,23.043c-3.021,14.069-10.757,33.235-17.41,53.619c-6.668,20.383-12.263,41.99-11.385,60.933
					c0.322,18.943,7.121,35.231,12.432,44.98"/>
				<path fill="none" stroke="#2D5A05" stroke-width="1.7439" stroke-miterlimit="10" d="M534.496,243.183
					c-1.25-0.001,23.367,31.985,46.891,49.456"/>
				<path fill="none" stroke="#2D5A05" stroke-width="1.7439" stroke-miterlimit="10" d="M656.323,267.414
					c0.114-0.002-60.902,21.629-71.75,43.894"/>
				<path fill="none" stroke="#2D5A05" stroke-width="1.7439" stroke-miterlimit="10" d="M648.083,195.297
					c1.396,0.002-35.647,17.766-54.919,36.415"/>
				<path fill="none" stroke="#2D5A05" stroke-width="1.7439" stroke-miterlimit="10" d="M584.363,180.693
					c0.088,0,14.078,8.437,18.153,22.143"/>
			</g>
		</g>
		<g>
			<g>
				
					<linearGradient id="SVGID_6_" gradientUnits="userSpaceOnUse" x1="233.4629" y1="227.8765" x2="332.4008" y2="366.631" gradientTransform="matrix(0.9944 -0.106 0.106 0.9944 -25.4391 21.9985)">
					<stop  offset="0" style="stop-color:#599019"/>
					<stop  offset="1" style="stop-color:#2D5A05"/>
				</linearGradient>
				<path fill="url(#SVGID_6_)" d="M355.791,303.486c-0.537-14.348,10.676-21.008-2.087-33.556
					c-17.108-16.061-36.6,17.854-36.127-8.072c0.433-23.89-16.436-33.022-22.892-28.358c-6.461,4.661-9.8,19.92-20.934,8.688
					c-9.396-8.935-8.721-25.895-25.032-25.149c-14.35,0.535-26.27,19.19-19.945,31.929c3.451,9.071,21.76,13.08,20.707,17.167
					c-1.055,4.085-17.049,14.382-8.681,25.762c6.924,9.419,17.922-1.869,29.845,2.819c15.029,5.85,1.765,15.274-7.618,15.779
					c-13.754,1.465-18.638,7.393-14.625,22.188c5.328,19.655,22.347,8.54,38.056,11.719c15.709,3.181,32.197,21.242,56.717,0.831
					C361.559,329.931,356.012,314.887,355.791,303.486z"/>
			</g>
			<g>
				<path fill="none" stroke="#599019" stroke-width="0.792" stroke-miterlimit="10" d="M255.773,253.83
					c0,0,71.647,68.812,87.401,91.402"/>
				<path fill="none" stroke="#599019" stroke-width="0.792" stroke-miterlimit="10" d="M274.729,325.427
					c0,0,33.995-3.623,49.134-2.003"/>
				<path fill="none" stroke="#599019" stroke-width="0.792" stroke-miterlimit="10" d="M338.168,283.071
					c0,0-9.559,31.757-5.598,49.943"/>
				<path fill="none" stroke="#599019" stroke-width="0.792" stroke-miterlimit="10" d="M299.658,251.158
					c0,0-8.549,26.816-4.571,41.357"/>
				<path fill="none" stroke="#599019" stroke-width="0.792" stroke-miterlimit="10" d="M256.196,282.173
					c0,0,13.332-5.54,24.472-3.493"/>
			</g>
		</g>
		<g>
			<g>
				
					<linearGradient id="SVGID_7_" gradientUnits="userSpaceOnUse" x1="507.3633" y1="220.5103" x2="549.7676" y2="220.5103" gradientTransform="matrix(0.9841 0.1779 -0.1779 0.9841 45.7674 -77.2574)">
					<stop  offset="0" style="stop-color:#142D2A"/>
					<stop  offset="1" style="stop-color:#275D4D"/>
				</linearGradient>
				<path fill="url(#SVGID_7_)" d="M556.398,119.293c-0.002,0.149-0.008,0.298-0.011,0.447c-0.161,6.219,0.167,12.817-0.924,18.854
					c-4.047,27.678-27.702,54.365-39.701,78.367c-20.327,40.055-26.178,90.065-9.052,133.059l0.166-0.925
					c4.001-16.834,9.812-48.979,15.611-65.167C535.988,244.557,572.644,181.282,556.398,119.293z"/>
			</g>
			<g>
				
					<linearGradient id="SVGID_8_" gradientUnits="userSpaceOnUse" x1="507.3633" y1="220.5103" x2="543.3203" y2="220.5103" gradientTransform="matrix(0.9841 0.1779 -0.1779 0.9841 45.7674 -77.2574)">
					<stop  offset="0" style="stop-color:#2D5A05"/>
					<stop  offset="1" style="stop-color:#599019"/>
				</linearGradient>
				<path fill="url(#SVGID_8_)" d="M556.398,119.293c-0.002,0.149-0.008,0.298-0.011,0.447c-0.161,6.219,0.167,12.817-0.924,18.854
					c-4.047,27.678-27.702,54.365-39.701,78.367c-20.327,40.055-26.178,90.065-9.052,133.059l0.166-0.925
					c-1.119-23.824-1.939-58.125,8.37-86.902C529.282,223.009,564.068,173.988,556.398,119.293z"/>
			</g>
		</g>
		<g>
			<g>
				<g>
					
						<linearGradient id="SVGID_9_" gradientUnits="userSpaceOnUse" x1="278.3926" y1="201.8403" x2="403.8827" y2="327.3304" gradientTransform="matrix(0.9885 -0.1514 0.1514 0.9885 -36.4565 58.2823)">
						<stop  offset="0" style="stop-color:#B8D255"/>
						<stop  offset="1" style="stop-color:#599019"/>
					</linearGradient>
					<path fill="url(#SVGID_9_)" d="M267.214,220.141c20.78,6.33,29.523,22.281,34.205,56.239
						c1.63,11.804,14.147,13.881,23.921,19.786c12.376,8.961,19.172,20.771,29.628,30.941
						c32.281,31.954,74.453-12.828,57.068-48.826c-13.014-28.021-36.142-22.128-60.054-29.164
						c-16.564-4.968-19.248-15.322-29.729-26.852C304.33,202.545,267.214,220.141,267.214,220.141z"/>
				</g>
				<g>
					
						<linearGradient id="SVGID_10_" gradientUnits="userSpaceOnUse" x1="379.3076" y1="318.7407" x2="271.1807" y2="209.8243" gradientTransform="matrix(0.9885 -0.1514 0.1514 0.9885 -36.4565 58.2823)">
						<stop  offset="0" style="stop-color:#B8D255"/>
						<stop  offset="1" style="stop-color:#599019"/>
					</linearGradient>
					<path fill="url(#SVGID_10_)" d="M391.714,285.422c-16.978-20.482-51.65-8.767-61.403-28.646
						c-19.089-38.909-61.631-36.806-62.881-36.734c-0.011,0.004-0.022,0.008-0.035,0.015c-0.001,0.014-0.015,0.055-0.034,0.131
						c20.674,6.361,29.388,22.319,34.059,56.192c1.63,11.804,14.147,13.881,23.921,19.786c12.376,8.961,19.172,20.771,29.628,30.941
						c19.021,18.828,41.471,11.009,53.151-5.951C406.73,312.956,402.807,298.804,391.714,285.422z"/>
				</g>
			</g>
			<g>
				<path fill="none" stroke="#599019" stroke-width="1.2766" stroke-miterlimit="10" d="M279.841,220.855
					c14.376,2.198,37.683,9.863,50.47,35.922c9.753,19.879,44.426,8.163,61.403,28.646c8.803,10.622,13.094,21.729,15.183,29.96"/>
				<path fill="none" stroke="#599019" stroke-width="1.2766" stroke-miterlimit="10" d="M313.709,278.292
					c0,0,19.737-9.822,19.166-17.718"/>
				<path fill="none" stroke="#599019" stroke-width="1.2766" stroke-miterlimit="10" d="M379.619,276.427
					c4.588,18.917-9.81,39.517-9.81,39.517"/>
				<path fill="none" stroke="#599019" stroke-width="1.2766" stroke-miterlimit="10" d="M319.025,226.71c0,0,1,6.381,0.155,13.921"
					/>
				<path fill="none" stroke="#599019" stroke-width="1.2766" stroke-miterlimit="10" d="M392.837,266.967
					c0,0,2.567,12.372-1.123,18.455"/>
			</g>
		</g>
		<g>
			<g>
				<g>
					<linearGradient id="SVGID_11_" gradientUnits="userSpaceOnUse" x1="485.7158" y1="263.2476" x2="478.5522" y2="40.8467">
						<stop  offset="0" style="stop-color:#599019"/>
						<stop  offset="1" style="stop-color:#2D5A05"/>
					</linearGradient>
					<path fill="url(#SVGID_11_)" d="M485.68,48.823c-6.209-4.66-14.625-9.032-22.466-5.764
						c-8.392,3.498-10.782,15.146-11.824,23.081c-3.394,25.833,10.172,48.691,23.264,69.826
						c5.333,8.609,10.821,17.132,15.695,26.015c5.153,9.394,8.849,19.322,11.958,29.561c6.972,22.957,9.874,46.891,10.428,70.82
						c0,0.012,1.736-0.029,1.736-0.043c-0.695-30.074-4.981-60.994-16.746-88.901c-4.86-11.528-11.767-22.149-18.368-32.729
						c-7.013-11.238-14.067-22.52-19.472-34.643c-6.812-15.281-9.532-31.709-5.185-48.093c1.483-5.592,4.177-11.629,9.46-14.554
						c3.038-1.682,5.396-1.515,8.568-0.646c4.12,1.128,7.837,3.578,11.215,6.113C484.313,49.143,485.323,48.555,485.68,48.823
						L485.68,48.823z"/>
				</g>
			</g>
			<g>
				<g>
					<g>
						
							<linearGradient id="SVGID_12_" gradientUnits="userSpaceOnUse" x1="1027.9141" y1="196.9214" x2="1019.3102" y2="298.3001" gradientTransform="matrix(0.9493 -0.3143 0.3143 0.9493 -557.8932 159.8611)">
							<stop  offset="0" style="stop-color:#57055A"/>
							<stop  offset="1" style="stop-color:#26055A"/>
						</linearGradient>
						<path fill="url(#SVGID_12_)" d="M494.979,21.369c-15.477-1.692-19.155,11.694-13.741,25.427
							c-19.544-12.704-38.759,0.047-30.621,24.624c6.608,19.969,35.272,12.61,51.122,20.57
							c10.476,5.907,17.491,15.515,23.353,25.506C541.775,91.945,530.275,25.023,494.979,21.369z"/>
					</g>
					<g>
						<path fill="#88088C" d="M486.679,80.47c-8.863-0.727-15.961,3.336-23.49,3.336c11.635,4.377,27.953,2.86,38.551,8.184
							c6.562,3.701,11.766,8.856,16.183,14.644c-0.083-1.01-0.204-2.073-0.397-3.217C514.923,88.651,498.919,81.751,486.679,80.47z"
							/>
					</g>
					<g>
						<path fill="#88088C" d="M488.409,36.701c-1.926-2.706-6.248-2.562-8.02-5.577c-0.291-0.469-0.505-0.906-0.681-1.318
							c-1.454,4.579-0.933,10.496,1.354,16.515c1.826,1.411,3.888,1.336,6.172-1.516C489.014,42.415,489.946,39.02,488.409,36.701z"
							/>
					</g>
				</g>
				<g opacity="0.3">
					<path fill="#211915" d="M480.521,47.67c1.333,5.74,13.878,3.979,20.086,9.692c1.031,0.951,7.883,11.079,8.866,11.783
						c4.496,2.808-2.32-11.127-3.301-13.094c-0.561-0.983-2.336-3.045-3.038-3.888c-3.511-4.353-15.871-4.072-20.928-4.773
						L480.521,47.67z"/>
				</g>
				<g>
					<linearGradient id="SVGID_13_" gradientUnits="userSpaceOnUse" x1="479.4004" y1="54.209" x2="513.9053" y2="54.209">
						<stop  offset="0" style="stop-color:#57055A"/>
						<stop  offset="1" style="stop-color:#FFD622"/>
					</linearGradient>
					<path fill="url(#SVGID_13_)" d="M489.679,41.165c-6.954-0.797-13.835,3.824-8.205,8.681c4.186,3.608,14.824-0.135,18.526,2.046
						c8.877,4.989,8.981,14.217,11.399,15.166c1.45,0.571,4.258,1.105,0.979-7.127C507.662,48.086,496.631,41.965,489.679,41.165z"
						/>
				</g>
			</g>
		</g>
		<g>
			<g>
				<g>
					<linearGradient id="SVGID_14_" gradientUnits="userSpaceOnUse" x1="277.1729" y1="323.9194" x2="271.5847" y2="150.4315">
						<stop  offset="0" style="stop-color:#599019"/>
						<stop  offset="1" style="stop-color:#2D5A05"/>
					</linearGradient>
					<path fill="url(#SVGID_14_)" d="M263.679,156.741c3.642-3.52,8.697-7.542,13.787-4.521c4.206,2.494,6.146,8.084,7.386,12.506
						c3.446,12.29,0.472,24.341-4.057,35.922c-4.664,11.929-11.024,23.184-14.955,35.401c-3.156,9.812-4.146,20.558-4.803,30.788
						c-1.219,18.97-0.359,39.394,7.013,57.16c0.058,0.138,1.125-0.152,1.176-0.029c-4.66-11.232-6.47-23.458-7.146-35.533
						c-0.669-11.96-0.068-24.024,1.553-35.888c0.639-4.676,1.479-9.331,2.612-13.913c1.452-5.863,4.02-11.511,6.467-17.01
						c5.269-11.836,11.37-23.55,13.983-36.341c2.022-9.896,1.144-22.55-5.427-30.735c-5.476-6.822-13.69-2.682-18.765,2.223
						C262.706,156.574,263.467,156.946,263.679,156.741L263.679,156.741z"/>
				</g>
			</g>
			<g>
				<g>
					<g>
						
							<linearGradient id="SVGID_15_" gradientUnits="userSpaceOnUse" x1="873.9541" y1="261.4722" x2="868.3512" y2="327.4907" gradientTransform="matrix(-0.9819 -0.1892 -0.1892 0.9819 1171.8256 48.7241)">
							<stop  offset="0" style="stop-color:#57055A"/>
							<stop  offset="1" style="stop-color:#26055A"/>
						</linearGradient>
						<path fill="url(#SVGID_15_)" d="M254.221,139.865c9.851-2.393,13.349,5.947,11.008,15.268
							c11.555-9.844,25.031-3.224,21.843,13.329c-2.594,13.451-21.722,11.105-31.287,17.577c-6.268,4.691-9.994,11.485-12.939,18.43
							C229.928,189.369,231.736,145.189,254.221,139.865z"/>
					</g>
					<g>
						<path fill="#88088C" d="M264.54,177.333c5.663-1.214,10.588,0.815,15.45,0.185c-7.145,3.802-17.812,4.192-24.206,8.521
							c-3.927,2.939-6.855,6.704-9.221,10.812c-0.029-0.659-0.043-1.355-0.014-2.11C246.99,184.989,256.745,179.189,264.54,177.333z
							"/>
					</g>
					<g>
						<path fill="#88088C" d="M259.749,149.215c1.019-1.908,3.822-2.179,4.712-4.272c0.148-0.33,0.251-0.628,0.328-0.909
							c1.326,2.837,1.484,6.699,0.513,10.778c-1.06,1.065-2.398,1.189-4.111-0.459C259.838,152.957,258.95,150.843,259.749,149.215z
							"/>
					</g>
				</g>
				<g opacity="0.3">
					<path fill="#211915" d="M265.768,155.638c-0.382,3.816-8.631,3.734-12.16,7.942c-0.586,0.703-4.159,7.819-4.736,8.356
						c-2.667,2.188,0.563-7.382,1.034-8.734c0.278-0.681,1.251-2.162,1.637-2.765c1.899-3.104,9.906-3.963,13.112-4.843
						L265.768,155.638z"/>
				</g>
				<g>
					
						<linearGradient id="SVGID_16_" gradientUnits="userSpaceOnUse" x1="352.4756" y1="154.0591" x2="374.9404" y2="154.0591" gradientTransform="matrix(-0.9917 0.1289 0.1289 0.9917 596.7274 -38.4485)">
						<stop  offset="0" style="stop-color:#57055A"/>
						<stop  offset="1" style="stop-color:#FFD622"/>
					</linearGradient>
					<path fill="url(#SVGID_16_)" d="M259.306,152.206c4.423-1.1,9.254,1.307,6.025,4.916c-2.399,2.681-9.582,1.158-11.791,2.877
						c-5.313,3.969-4.606,9.936-6.088,10.749c-0.888,0.492-2.655,1.072-1.229-4.521
						C248.274,158.185,254.883,153.305,259.306,152.206z"/>
				</g>
			</g>
		</g>
		<g>
			
				<linearGradient id="SVGID_17_" gradientUnits="userSpaceOnUse" x1="1096.3203" y1="678.5571" x2="1149.0679" y2="678.5571" gradientTransform="matrix(0.6398 0.7686 -0.7686 0.6398 369.3 -997.0214)">
				<stop  offset="0" style="stop-color:#B8D255"/>
				<stop  offset="1" style="stop-color:#599019"/>
			</linearGradient>
			<path fill="url(#SVGID_17_)" d="M544.229,305.838c0.021-0.152,12.384,14.697,23.056,19.667c0.162,0.077,0.304,0.154,0.457,0.232
				c9.686-7.714,17.964-21.615,24.648-36.26c-6.983-2.628-11.395-8.525-11.409-8.415c0.009-0.071,6.387,3.098,14.301,1.81
				c12.082-28.983,17.847-56.057,17.81-55.78c-0.015,0.117-15.244,13.455-32.629,13.715c1.812,6.229,3.65,10.777,3.649,10.775
				c-0.001,0.011-4.302-3.694-8.812-10.654c-12.657-0.106-26.271-4.008-38.727-2.693c1.74,11.306,5.876,25.412,5.873,25.42
				c-0.004,0.03-7.862-11.872-13.605-23.896c-4.207,1.265-8.194,3.291-11.796,6.049c-6.772,5.162-12.919,12.108-18.241,19.839
				c0.3,0.28,0.603,0.603,0.907,1.019c6.019,7.392,16.173,20.604,16.141,20.847c0.004-0.044-12.878-8.213-23.97-10.643
				c-14.544,27.489-18.406,48.781-7.646,52.405c7.258,3.054,19.135,4.035,32.395,5.948c13.34,1.331,28.063,3.593,42.795-4.205
				C550.333,319.941,544.25,305.698,544.229,305.838z"/>
			
				<linearGradient id="SVGID_18_" gradientUnits="userSpaceOnUse" x1="1076.7451" y1="593.269" x2="1076.7451" y2="767.5939" gradientTransform="matrix(0.6398 0.7686 -0.7686 0.6398 369.3 -997.0214)">
				<stop  offset="0" style="stop-color:#B8D255"/>
				<stop  offset="1" style="stop-color:#599019"/>
			</linearGradient>
			<path fill="url(#SVGID_18_)" d="M580.463,240.807c1.812,6.229,3.65,10.777,3.649,10.775c-0.001,0.011-4.302-3.694-8.812-10.654
				c-12.657-0.106-26.271-4.008-38.727-2.693c1.74,11.306,5.876,25.412,5.873,25.42c-0.004,0.03-7.862-11.872-13.605-23.896
				c-4.207,1.265-8.194,3.291-11.796,6.049c-6.772,5.162-12.919,12.108-18.241,19.839c0.3,0.28,0.603,0.603,0.907,1.019
				c6.019,7.392,16.173,20.604,16.141,20.847c0.004-0.044-12.878-8.213-23.97-10.643c-14.544,27.489-18.406,48.781-7.646,52.405
				c46.07-57.521,81.152-32.378,128.854-102.182C613.077,227.209,597.848,240.547,580.463,240.807z"/>
			<path fill="#B8D255" d="M483.591,328.911c0.216,0.122,0.423,0.25,0.646,0.363c46.07-57.521,81.152-32.378,128.854-102.182
				c0-0.006-0.633,0.528-1.783,1.429C564.32,295.208,529.434,270.843,483.591,328.911z"/>
		</g>
		<g>
			<g>
				<g>
					
						<line fill="none" stroke="#2D5A05" stroke-width="1.6039" stroke-miterlimit="10" x1="434.593" y1="244.973" x2="449.7" y2="250.267"/>
					
						<linearGradient id="SVGID_19_" gradientUnits="userSpaceOnUse" x1="144.6914" y1="227.6265" x2="181.5849" y2="252.8905" gradientTransform="matrix(0.9988 -0.0481 0.0481 0.9988 246.1766 3.7439)">
						<stop  offset="0.0053" style="stop-color:#199062"/>
						<stop  offset="1" style="stop-color:#26055A"/>
					</linearGradient>
					<path fill="url(#SVGID_19_)" d="M438.473,246.327c0,0-8.866,3.186-17.813,2.461c-12.198-0.983-24.937-7.59-19.1-24.235
						c4.253-12.123,17.69-9.365,27.313,0.29C436.63,232.625,438.473,246.327,438.473,246.327z"/>
					<g>
						<path fill="none" stroke="#B8D255" stroke-width="0.4812" stroke-miterlimit="10" d="M405.182,227.445
							c0,0,18.985,14.176,33.266,18.906"/>
						
							<line fill="none" stroke="#B8D255" stroke-width="0.4812" stroke-miterlimit="10" x1="413.157" y1="219.81" x2="411.954" y2="232.281"/>
						
							<line fill="none" stroke="#B8D255" stroke-width="0.4812" stroke-miterlimit="10" x1="414.591" y1="234.169" x2="407.179" y2="241.105"/>
						
							<line fill="none" stroke="#B8D255" stroke-width="0.4812" stroke-miterlimit="10" x1="419.38" y1="236.698" x2="421.329" y2="224.297"/>
						
							<line fill="none" stroke="#B8D255" stroke-width="0.4812" stroke-miterlimit="10" x1="423.977" y1="239.552" x2="418.321" y2="245.554"/>
					</g>
				</g>
				<g>
					
						<line fill="none" stroke="#2D5A05" stroke-width="1.6039" stroke-miterlimit="10" x1="460.82" y1="239.298" x2="449.22" y2="250.333"/>
					
						<linearGradient id="SVGID_20_" gradientUnits="userSpaceOnUse" x1="226.0205" y1="214.1577" x2="201.5593" y2="247.04" gradientTransform="matrix(0.9988 -0.0481 0.0481 0.9988 246.1766 3.7439)">
						<stop  offset="0.0053" style="stop-color:#199062"/>
						<stop  offset="1" style="stop-color:#26055A"/>
					</linearGradient>
					<path fill="url(#SVGID_20_)" d="M457.839,242.127c0,0,9.39-0.737,17.251-5.071c10.716-5.91,19.615-17.167,7.456-29.947
						c-8.855-9.304-19.977-1.269-24.781,11.486C453.891,228.876,457.839,242.127,457.839,242.127z"/>
					<g>
						<path fill="none" stroke="#B8D255" stroke-width="0.4812" stroke-miterlimit="10" d="M480.435,211.235
							c0,0-11.197,20.439-22.271,30.62"/>
						
							<line fill="none" stroke="#B8D255" stroke-width="0.4812" stroke-miterlimit="10" x1="470.025" y1="207.553" x2="476.244" y2="218.429"/>
						
							<line fill="none" stroke="#B8D255" stroke-width="0.4812" stroke-miterlimit="10" x1="474.618" y1="221.233" x2="484.223" y2="224.51"/>
						
							<line fill="none" stroke="#B8D255" stroke-width="0.4812" stroke-miterlimit="10" x1="471.288" y1="225.506" x2="464.416" y2="215"/>
						
							<line fill="none" stroke="#B8D255" stroke-width="0.4812" stroke-miterlimit="10" x1="468.272" y1="229.995" x2="475.892" y2="233.145"/>
					</g>
				</g>
			</g>
			<g>
				
					<linearGradient id="SVGID_21_" gradientUnits="userSpaceOnUse" x1="-465.9219" y1="1203.2065" x2="-423.3726" y2="1232.3435" gradientTransform="matrix(0.8046 0.5939 -0.5939 0.8046 1486.4111 -606.1688)">
					<stop  offset="0.0053" style="stop-color:#199062"/>
					<stop  offset="1" style="stop-color:#26055A"/>
				</linearGradient>
				<path fill="url(#SVGID_21_)" d="M413.701,131.899c0,0-10.249-3.615-17.72-10.779c-10.19-9.772-16.764-24.958,0.585-35.589
					c12.635-7.739,22.641,4.52,24.21,20.166C422.037,118.306,413.701,131.899,413.701,131.899z"/>
				<g>
					<path fill="none" stroke="#B8D255" stroke-width="0.555" stroke-miterlimit="10" d="M397.695,90.755
						c0,0,6.407,26.106,15.725,40.742"/>
					
						<line fill="none" stroke="#B8D255" stroke-width="0.555" stroke-miterlimit="10" x1="410.393" y1="89.742" x2="400.228" y2="100.016"/>
					
						<line fill="none" stroke="#B8D255" stroke-width="0.555" stroke-miterlimit="10" x1="401.21" y1="103.627" x2="389.528" y2="104.425"/>
					
						<line fill="none" stroke="#B8D255" stroke-width="0.555" stroke-miterlimit="10" x1="403.647" y1="109.377" x2="414.43" y2="99.711"/>
					
						<line fill="none" stroke="#B8D255" stroke-width="0.555" stroke-miterlimit="10" x1="405.676" y1="115.278" x2="396.246" y2="116.526"/>
				</g>
			</g>
			<g>
				<g>
					
						<line fill="none" stroke="#2D5A05" stroke-width="1.4435" stroke-miterlimit="10" x1="424.234" y1="199.69" x2="438.114" y2="203.551"/>
					
						<linearGradient id="SVGID_22_" gradientUnits="userSpaceOnUse" x1="234.7529" y1="102.0825" x2="267.9554" y2="124.819" gradientTransform="matrix(0.9935 -0.1135 0.1135 0.9935 148.599 108.1482)">
						<stop  offset="0.0053" style="stop-color:#199062"/>
						<stop  offset="1" style="stop-color:#26055A"/>
					</linearGradient>
					<path fill="url(#SVGID_22_)" d="M427.797,200.673c0,0-7.773,3.388-15.853,3.266c-11.012-0.164-22.842-5.344-18.583-20.641
						c3.102-11.134,15.333-9.453,24.545-1.351C425.333,188.48,427.797,200.673,427.797,200.673z"/>
					<g>
						<path fill="none" stroke="#B8D255" stroke-width="0.4331" stroke-miterlimit="10" d="M396.783,185.687
							c0,0,17.538,11.503,30.641,14.909"/>
						
							<line fill="none" stroke="#B8D255" stroke-width="0.4331" stroke-miterlimit="10" x1="403.495" y1="178.356" x2="403.154" y2="189.628"/>
						
							<line fill="none" stroke="#B8D255" stroke-width="0.4331" stroke-miterlimit="10" x1="405.633" y1="191.168" x2="399.387" y2="197.834"/>
						
							<line fill="none" stroke="#B8D255" stroke-width="0.4331" stroke-miterlimit="10" x1="410.082" y1="193.157" x2="411.102" y2="181.904"/>
						
							<line fill="none" stroke="#B8D255" stroke-width="0.4331" stroke-miterlimit="10" x1="414.379" y1="195.448" x2="409.655" y2="201.172"/>
					</g>
				</g>
				<g>
					
						<line fill="none" stroke="#2D5A05" stroke-width="1.4435" stroke-miterlimit="10" x1="447.452" y1="193.044" x2="437.687" y2="203.638"/>
					
						<linearGradient id="SVGID_23_" gradientUnits="userSpaceOnUse" x1="307.9463" y1="89.9585" x2="285.9314" y2="119.5523" gradientTransform="matrix(0.9935 -0.1135 0.1135 0.9935 148.599 108.1482)">
						<stop  offset="0.0053" style="stop-color:#199062"/>
						<stop  offset="1" style="stop-color:#26055A"/>
					</linearGradient>
					<path fill="url(#SVGID_23_)" d="M444.939,195.759c0,0,8.392-1.219,15.194-5.572c9.277-5.942,16.602-16.574,4.926-27.335
						c-8.5-7.832-18.014,0.04-21.576,11.781C440.612,184.092,444.939,195.759,444.939,195.759z"/>
					<g>
						<path fill="none" stroke="#B8D255" stroke-width="0.4331" stroke-miterlimit="10" d="M463.409,166.685
							c0,0-8.85,19.012-18.194,28.812"/>
						
							<line fill="none" stroke="#B8D255" stroke-width="0.4331" stroke-miterlimit="10" x1="453.843" y1="163.99" x2="460.069" y2="173.388"/>
						
							<line fill="none" stroke="#B8D255" stroke-width="0.4331" stroke-miterlimit="10" x1="458.773" y1="176.005" x2="467.595" y2="178.38"/>
						
							<line fill="none" stroke="#B8D255" stroke-width="0.4331" stroke-miterlimit="10" x1="456.037" y1="180.04" x2="449.244" y2="171.008"/>
						
							<line fill="none" stroke="#B8D255" stroke-width="0.4331" stroke-miterlimit="10" x1="453.596" y1="184.249" x2="460.622" y2="186.628"/>
					</g>
				</g>
			</g>
			<g>
				<g>
					
						<line fill="none" stroke="#2D5A05" stroke-width="1.227" stroke-miterlimit="10" x1="412.351" y1="155.585" x2="424.149" y2="158.866"/>
					
						<linearGradient id="SVGID_24_" gradientUnits="userSpaceOnUse" x1="232.2607" y1="59.9351" x2="260.4844" y2="79.2621" gradientTransform="matrix(0.9935 -0.1135 0.1135 0.9935 148.599 108.1482)">
						<stop  offset="0.0053" style="stop-color:#199062"/>
						<stop  offset="1" style="stop-color:#26055A"/>
					</linearGradient>
					<path fill="url(#SVGID_24_)" d="M415.381,156.422c0,0-6.607,2.88-13.474,2.774c-9.362-0.139-19.415-4.54-15.797-17.543
						c2.637-9.471,13.032-8.039,20.864-1.151C413.284,146.056,415.381,156.422,415.381,156.422z"/>
					<g>
						<path fill="none" stroke="#B8D255" stroke-width="0.3681" stroke-miterlimit="10" d="M389.018,143.68
							c0,0,14.908,9.778,26.046,12.677"/>
						
							<line fill="none" stroke="#B8D255" stroke-width="0.3681" stroke-miterlimit="10" x1="394.726" y1="137.45" x2="394.432" y2="147.035"/>
						
							<line fill="none" stroke="#B8D255" stroke-width="0.3681" stroke-miterlimit="10" x1="396.541" y1="148.344" x2="391.231" y2="154.008"/>
						
							<line fill="none" stroke="#B8D255" stroke-width="0.3681" stroke-miterlimit="10" x1="400.325" y1="150.031" x2="401.189" y2="140.463"/>
						
							<line fill="none" stroke="#B8D255" stroke-width="0.3681" stroke-miterlimit="10" x1="403.974" y1="151.983" x2="399.962" y2="156.846"/>
					</g>
				</g>
				<g>
					
						<line fill="none" stroke="#2D5A05" stroke-width="1.227" stroke-miterlimit="10" x1="432.089" y1="149.938" x2="423.786" y2="158.941"/>
					
						<linearGradient id="SVGID_25_" gradientUnits="userSpaceOnUse" x1="294.4766" y1="49.6284" x2="275.7628" y2="74.7847" gradientTransform="matrix(0.9935 -0.1135 0.1135 0.9935 148.599 108.1482)">
						<stop  offset="0.0053" style="stop-color:#199062"/>
						<stop  offset="1" style="stop-color:#26055A"/>
					</linearGradient>
					<path fill="url(#SVGID_25_)" d="M429.954,152.246c0,0,7.131-1.036,12.912-4.738c7.884-5.053,14.113-14.092,4.188-23.236
						c-7.226-6.657-15.312,0.036-18.34,10.01C426.271,142.327,429.954,152.246,429.954,152.246z"/>
					<g>
						<path fill="none" stroke="#B8D255" stroke-width="0.3681" stroke-miterlimit="10" d="M445.648,127.525
							c0,0-7.519,16.167-15.462,24.494"/>
						
							<line fill="none" stroke="#B8D255" stroke-width="0.3681" stroke-miterlimit="10" x1="437.52" y1="125.236" x2="442.812" y2="133.226"/>
						
							<line fill="none" stroke="#B8D255" stroke-width="0.3681" stroke-miterlimit="10" x1="441.712" y1="135.448" x2="449.209" y2="137.47"/>
						
							<line fill="none" stroke="#B8D255" stroke-width="0.3681" stroke-miterlimit="10" x1="439.387" y1="138.877" x2="433.61" y2="131.203"/>
						
							<line fill="none" stroke="#B8D255" stroke-width="0.3681" stroke-miterlimit="10" x1="437.308" y1="142.457" x2="443.282" y2="144.481"/>
					</g>
				</g>
			</g>
			<path fill="none" stroke="#2D5A05" stroke-width="1.227" stroke-miterlimit="10" d="M413.285,131.783
				c0,0,39.017,93.271,41.343,166.622"/>
		</g>
		<g>
			
				<linearGradient id="SVGID_26_" gradientUnits="userSpaceOnUse" x1="246.9863" y1="452.7446" x2="279.9292" y2="452.7446" gradientTransform="matrix(-0.6924 0.7215 0.7215 0.6924 267.6622 -204.9714)">
				<stop  offset="0" style="stop-color:#B8D255"/>
				<stop  offset="1" style="stop-color:#599019"/>
			</linearGradient>
			<path fill="url(#SVGID_26_)" d="M424.794,304.146c0,0-10.13,5.006-18.268,6.913c-0.125,0.029-0.233,0.063-0.349,0.093
				c-6.742-7.041-12.011-16.556-16.058-26.209c5.112-3.685,8.663-7.469,8.663-7.469s-4.842,1.764-10.396,3.139
				c-7.146-18.695-9.828-36.577-9.828-36.577s9.865,1.065,22.692,4.205c-1.659,4.237-3.236,7.498-3.236,7.498
				s3.331-2.561,7.047-6.525c9.382,2.499,19.896,6.078,29.144,11.082c-1.907,7.302-5.781,15.482-5.781,15.482
				s6.56-5.124,11.476-12.102c3.067,2.007,5.908,4.203,8.413,6.605c4.71,4.519,8.808,9.292,12.235,14.117
				c-0.229,0.273-0.462,0.58-0.703,0.951c-4.658,7.139-12.842,15.075-12.842,15.075s9.983-3.092,17.917-9.219
				c8.885,15.432,10.558,30.436,2.869,38.449c-10.488,10.929-34.672,4.997-55.729-13.026
				C419.424,311.267,424.794,304.146,424.794,304.146z"/>
			
				<linearGradient id="SVGID_27_" gradientUnits="userSpaceOnUse" x1="232.498" y1="389.0552" x2="232.498" y2="519.2347" gradientTransform="matrix(-0.6924 0.7215 0.7215 0.6924 267.6622 -204.9714)">
				<stop  offset="0" style="stop-color:#B8D255"/>
				<stop  offset="1" style="stop-color:#599019"/>
			</linearGradient>
			<path fill="url(#SVGID_27_)" d="M401.251,248.241c-1.659,4.237-3.236,7.498-3.236,7.498s3.331-2.561,7.047-6.525
				c9.382,2.499,19.896,6.078,29.144,11.082c-1.907,7.302-5.781,15.482-5.781,15.482s6.56-5.124,11.476-12.102
				c3.067,2.007,5.908,4.203,8.413,6.605c4.71,4.519,8.808,9.292,12.235,14.117c-0.229,0.273-0.462,0.58-0.703,0.951
				c-4.658,7.139-12.842,15.075-12.842,15.075s9.983-3.092,17.917-9.219c8.885,15.432,10.558,30.436,2.869,38.449l-89.23-85.62
				C378.559,244.036,388.424,245.101,401.251,248.241z"/>
			<path fill="#B8D255" d="M468.26,329.129c-0.154,0.176-0.308,0.355-0.471,0.526l-89.23-85.62c0,0,0.414,0.044,1.171,0.143
				L468.26,329.129z"/>
		</g>
	</g>
</g>
</svg>
