<?xml version="1.0" encoding="utf-8"?>
<!-- Generator: Adobe Illustrator 16.0.4, SVG Export Plug-In . SVG Version: 6.00 Build 0)  -->
<!DOCTYPE svg PUBLIC "-//W3C//DTD SVG 1.1//EN" "http://www.w3.org/Graphics/SVG/1.1/DTD/svg11.dtd">
<svg version="1.1" id="Layer_1" xmlns="http://www.w3.org/2000/svg" xmlns:xlink="http://www.w3.org/1999/xlink" x="0px" y="0px"
	 width="396.821px" height="219.871px" viewBox="0 0 396.821 219.871" enable-background="new 0 0 396.821 219.871"
	 xml:space="preserve">
<g>
	<defs>
		<rect id="SVGID_1_" x="-0.38" y="-0.408" width="379.138" height="196.93"/>
	</defs>
	<clipPath id="SVGID_2_">
		<use xlink:href="#SVGID_1_"  overflow="visible"/>
	</clipPath>
	<g opacity="0.1" clip-path="url(#SVGID_2_)">
		<path fill="#7264AC" d="M-23.303,216.366c36.749-14.475,31.318-79.538,82.267-127.854c21.333-20.23,168.153-63.475,167.04-90.201
			C223.776-31.757,105.735-59.597,82.35-65.165C44.487-72.96,9.966-72.96-14.533-39.552C-34.578-11.712-44.6,30.604-45.714,65.126
			L-23.303,216.366z"/>
	</g>
	<g opacity="0.1" clip-path="url(#SVGID_2_)">
		<path fill="#7264AC" d="M413.293-14.196c-75.256,27.363-145.316,65.333-243.802,59.02c-60.38-3.87-125.836,37.882-182.629,61.268
			C-33.182,115-63.25,147.294-85.521,136.159c-37.862-17.817-14.477-116.947,5.568-136.992
			c35.635-34.521,94.655-42.316,141.426-46.771c85.747-7.795,242.688-3.341,328.435,0L413.293-14.196z"/>
	</g>
	<g clip-path="url(#SVGID_2_)">
		<g>
			
				<linearGradient id="SVGID_3_" gradientUnits="userSpaceOnUse" x1="290.7778" y1="485.1167" x2="328.6787" y2="485.1167" gradientTransform="matrix(0.4316 -0.9021 -0.9021 -0.4316 390.5894 509.9773)">
				<stop  offset="0" style="stop-color:#152E2A"/>
				<stop  offset="1" style="stop-color:#285E4E"/>
			</linearGradient>
			<path fill="url(#SVGID_3_)" d="M185.146,59.54c-0.11-0.076-0.221-0.15-0.33-0.226c-4.593-3.136-9.202-6.824-14.147-9.189
				c-22.175-11.542-53.887-8.354-77.557-12.21C53.454,31.7,14.151,9.787-8.052-25.108l0.757,0.363
				C6.998-18.841,33.333-6.242,48.097-1.979C83.689,8.826,148.717,15.351,185.146,59.54z"/>
		</g>
		<g>
			
				<linearGradient id="SVGID_4_" gradientUnits="userSpaceOnUse" x1="290.7778" y1="485.1167" x2="322.9165" y2="485.1167" gradientTransform="matrix(0.4316 -0.9021 -0.9021 -0.4316 390.5894 509.9773)">
				<stop  offset="0" style="stop-color:#345B2C"/>
				<stop  offset="1" style="stop-color:#599140"/>
			</linearGradient>
			<path fill="url(#SVGID_4_)" d="M185.146,59.54c-0.11-0.076-0.221-0.15-0.33-0.226c-4.593-3.136-9.202-6.824-14.147-9.189
				c-22.175-11.542-53.887-8.354-77.557-12.21C53.454,31.7,14.151,9.787-8.052-25.108l0.757,0.363
				c16.68,13.27,41.11,31.802,67.357,39.379C95.799,24.954,149.518,25.379,185.146,59.54z"/>
		</g>
	</g>
	<g clip-path="url(#SVGID_2_)">
		
			<linearGradient id="SVGID_5_" gradientUnits="userSpaceOnUse" x1="408.6011" y1="999.7603" x2="446.9046" y2="999.7603" gradientTransform="matrix(-0.6475 0.762 -0.762 -0.6475 1084.1152 376.0311)">
			<stop  offset="0" style="stop-color:#345B2C"/>
			<stop  offset="1" style="stop-color:#599140"/>
		</linearGradient>
		<path fill="url(#SVGID_5_)" d="M37.388,40.377c0,0-4.596,12.307-5.839,21.943c-0.018,0.147-0.044,0.276-0.067,0.415
			c8.941,6.963,20.566,11.936,32.208,15.477c3.659-6.346,7.619-10.902,7.619-10.902s-1.47,5.809-2.404,12.395
			c22.466,6.059,43.466,7.048,43.466,7.048s-2.397-11.285-7.543-25.749c-4.705,2.419-8.289,4.629-8.289,4.629
			s2.566-4.156,6.715-8.921c-3.999-10.557-9.378-22.295-16.259-32.401c-8.22,3.071-17.225,8.514-17.225,8.514
			s5.152-8.191,12.642-14.701c-2.684-3.308-5.557-6.337-8.632-8.95C67.996,4.26,61.99,0.085,56.005-3.309
			c-0.289,0.295-0.617,0.601-1.017,0.923c-7.707,6.231-15.92,16.632-15.92,16.632s2.396-11.912,8.548-21.812
			c-18.901-8.452-36.449-8.616-44.811,1.225C-8.595,7.08,1.119,34.349,24.452,56.578C29.785,47.427,37.388,40.377,37.388,40.377z"/>
		
			<linearGradient id="SVGID_6_" gradientUnits="userSpaceOnUse" x1="391.7524" y1="925.7114" x2="391.7524" y2="1077.0646" gradientTransform="matrix(-0.6475 0.762 -0.762 -0.6475 1084.1152 376.0311)">
			<stop  offset="0" style="stop-color:#B8D254"/>
			<stop  offset="1" style="stop-color:#599140"/>
		</linearGradient>
		<path fill="url(#SVGID_6_)" d="M104.828,61.003c-4.705,2.419-8.289,4.629-8.289,4.629s2.566-4.156,6.715-8.921
			c-3.999-10.557-9.378-22.295-16.259-32.401c-8.22,3.071-17.225,8.514-17.225,8.514s5.152-8.191,12.642-14.701
			c-2.684-3.308-5.557-6.337-8.632-8.95C67.996,4.26,61.99,0.085,56.005-3.309c-0.289,0.295-0.617,0.601-1.017,0.923
			c-7.707,6.231-15.92,16.632-15.92,16.632s2.396-11.912,8.548-21.812c-18.901-8.452-36.449-8.616-44.811,1.225l109.564,93.093
			C112.371,86.752,109.974,75.468,104.828,61.003z"/>
		<path fill="#B8D254" d="M3.359-6.95c-0.187,0.202-0.375,0.4-0.553,0.609l109.564,93.093c0,0-0.099-0.472-0.301-1.336L3.359-6.95z"
			/>
	</g>
</g>
</svg>
