<?xml version="1.0" encoding="utf-8"?>
<!-- Generator: Adobe Illustrator 25.4.1, SVG Export Plug-In . SVG Version: 6.00 Build 0)  -->
<svg version="1.1" id="Layer_1" xmlns:serif="http://www.serif.com/"
	 xmlns="http://www.w3.org/2000/svg" xmlns:xlink="http://www.w3.org/1999/xlink" x="0px" y="0px" viewBox="0 0 600 600"
	 style="enable-background:new 0 0 600 600;" xml:space="preserve">
<style type="text/css">
	.st0{fill-rule:evenodd;clip-rule:evenodd;fill:#FFFFFF;}
	.st1{fill-rule:evenodd;clip-rule:evenodd;fill:#0B6170;}
	.st2{fill-rule:evenodd;clip-rule:evenodd;fill:#374147;}
	.st3{fill-rule:evenodd;clip-rule:evenodd;fill:#414C51;}
	.st4{fill-rule:evenodd;clip-rule:evenodd;fill:#FBC494;}
	.st5{fill-rule:evenodd;clip-rule:evenodd;fill:#DEB096;}
	.st6{fill-rule:evenodd;clip-rule:evenodd;fill:#FFDCBC;}
	.st7{fill-rule:evenodd;clip-rule:evenodd;}
</style>
<ellipse class="st0" cx="300.2" cy="299.2" rx="246.8" ry="244.7"/>
<g id="color" transform="matrix(2.33642,0,0,2.33642,284.608,191.189)">
	<path class="st1" d="M10.9,150.6c-2.2-2.2-5.5-6.2-7.5-8.9c-7.2-9.8-10.6-16.1-13.6-25.3c-1.3-3.9-1.8-6.3-1.4-6.3
		c0.1,0,0.6,0.3,1,0.7c3.2,2.6,6.8,4.4,10.7,5.3c4.7,1.1,11.4,1.3,15.5,0.4c2.7-0.6,5.7-1.8,7.7-3.2c1.1-0.7,4.3-3.7,5.1-4.8
		c0.5-0.6,0.9-0.8,1-0.4c0.1,0.3-0.6,4.6-1,6.6c-1,4.1-2.3,8.1-4.2,12.8c-1.9,4.6-4.2,12.6-4.7,16.2c-0.1,0.8-0.3,2.1-0.4,2.9
		c-0.1,0.8-0.3,2.3-0.4,3.2c-0.1,0.9-0.3,1.8-0.3,1.9c-0.1,0.1-4.3,0.5-5.6,0.5C12.6,152.3,11.8,151.6,10.9,150.6z"/>
	<path class="st2" d="M0.3,152.6c-1.7-0.1-5.8-0.7-8.6-1.2c-5-0.9-7.2-1.3-7.5-1.4c-0.2-0.1-0.3-0.3-0.5-0.8c-0.8-3-2.4-7.7-2.8-8.6
		c-0.5-0.9-1.4-2.3-2.2-3.3c-0.9-1.1-6.1-6.3-8.6-8.8c-2.5-2.3-3.3-3-5.2-4.3c-0.7-0.5-1.4-1-1.5-1.1c-0.1-0.2,0-0.4,0.6-1
		c3.1-3.4,6.3-7.4,7.1-8.5c0.5-0.9,1-2,1-2.4c0-0.3-0.4-0.9-0.8-1.1c-0.2-0.1-0.6-0.1-1.1,0.1c-2.6,0.6-7.6,0.8-11.8,0.4
		c-3.3-0.3-9.5-1.4-10.3-1.8c-0.4-0.2-0.2-0.5,0.6-1.1c2-1.5,3.1-2.5,6.2-5.3c5.5-5,8.6-8.3,12.9-14.3c2.1-2.9,3.3-4.4,5-6.2
		c5.2-5.6,9.5-8.8,13.3-9.6c0.5-0.1,1.7-0.2,3.5-0.2l2.8,0l0,1.1c-0.1,3.5-1.3,7.5-2.9,9.9c-1,1.4-1.7,1.9-1.7,1.2
		c0-0.7,0.9-3.3,1.9-5.8c0.5-1.2,0.5-1.3,0.3-1.5c-0.1-0.1-0.2-0.1-0.5,0.2c-1,1-2.9,4.5-3.7,7c-1.4,4.2-2.5,11.9-2.2,16.5
		c0.2,3.8,1,8.5,2.1,12c2.7,9.1,8.2,19.7,14.2,27.4c2,2.5,8.6,9.6,10.2,11.1c1,0.8,1.2,1.3,0.7,1.4C10.4,152.6,1.4,152.7,0.3,152.6z
		 M19.9,151.5c-0.1-0.1,0-0.7,0.3-2.3c0.6-2.8,0.7-3.3,1.4-5.4c0.3-0.9,0.9-2.9,1.4-4.4c0.4-1.5,1.2-3.9,1.7-5.4
		c0.8-2.5,1.3-3.8,2.9-8c1.7-4.3,3.3-9.8,3.9-12.9c0.3-1.5,1.1-7,1.3-9.1c0.1-0.8,0.4-0.7,1.6,0.8c1.6,2,3.8,4.2,4.8,4.9l0.9,0.6
		l-0.1,0.5c-0.3,1.9-0.4,4.5-0.4,8.2c0,4.5,0.1,6.5,0.6,9.2c0.4,1.9,0.4,2.1,0.1,2.3c-0.6,0.5-1.8,2.3-3.2,5c-0.6,1.1-1.7,3-2.5,4.4
		c-0.8,1.3-1.6,2.7-1.8,3.1c-0.2,0.4-0.9,1.6-1.6,2.7c-2.6,4.1-2.9,4.6-3.2,4.6c-0.7,0.1-3,0.5-4.7,0.8c-1.1,0.2-2.2,0.4-2.5,0.4
		C20.1,151.7,20.1,151.7,19.9,151.5z"/>
	<path class="st3" d="M32.3,149.3c0-0.1,0.8-1.2,1.7-2.5c3.4-4.4,4.1-5.7,6.3-10.8c1.2-2.8,1.2-2.8,2.1-1c0.3,0.7,1,1.9,1.6,2.7
		c3,4.5,4,6.1,4,6.3c-0.1,0.4-3,1.6-5.9,2.5c-3.4,1-5.7,1.7-7.3,2.3C33,149.5,32.3,149.6,32.3,149.3z M-19.6,149
		c-2.1-0.5-7.7-2.5-11.5-4c-0.7-0.3-1.7-0.7-2.2-0.9c-0.5-0.2-1.4-0.6-1.9-0.8l-0.9-0.5l-0.2-0.9c-0.6-2.4-1.4-6-1.6-7.5
		c-0.5-3.6-1.5-6.9-2.1-7.7c-0.6-0.7-1.3-0.3-1.3,0.7c0,1.9,0.5,4.7,1.9,10c0.6,2.1,1,3.9,0.9,4c-0.2,0.2-4.3-2.1-7.1-3.8
		c-2-1.3-3.5-2.3-5.6-4.1c-2.2-1.8-2.1-1.7-2-2.7c0-0.5,0.1-1.8,0.2-3c0.1-1.2,0.2-2.7,0.3-3.4c0.1-1.4,0.9-7.1,1.1-7.9
		c0.1-0.3,0.2-1.5,0.4-2.7c0.2-1.2,0.3-2.3,0.4-2.5c0.1-0.4,0.3-0.4,3.2,0.2c5.6,1,11,1.4,14.1,1.1c2-0.2,2-0.2,2,0.1
		c0.1,0.5-3.4,4.4-6.4,7.4c-1.6,1.5-1.9,2-1.9,2.8c0,0.7,0.5,1.2,2.6,2.8c1.6,1.2,2.5,1.9,4.8,4.3c3,3,6.7,7.1,8.1,8.8
		c1.6,2.1,3.5,5.2,4.4,7.4c1.1,2.6,1.1,2.9,0.7,2.9C-19.2,149.1-19.4,149-19.6,149z M52.3,141.7c0.2-1,1.1-4,1.5-5.2
		c0.9-2.7,3-6.5,6.2-11.2c1.8-2.7,3.7-5.8,4.4-7.2c0.3-0.6,0.5-0.8,0.7-0.8c0.2,0,0.3,0,0.3,0c0,0,0.2,0.6,0.4,1.3
		c0.6,1.6,1.2,4,1.6,5.8c0.3,1.7,0.8,3.5,1.2,4.9c0.4,1.4,0.4,1.5-0.3,2c-0.3,0.2-1.5,1.2-2.5,2c-2.4,2-5.2,4.1-7.1,5.4
		c-2.6,1.7-5.6,3.3-6.1,3.3C52.3,142.1,52.3,142,52.3,141.7z M-48.1,101.5c0-0.1,0-0.7,0.2-1.4c0.2-1,0.5-1.6,1.6-4
		c1.5-3.1,2.6-4.8,4.2-7c2-2.7,3.6-4.1,6.3-5.4c1.3-0.7,3.5-1.4,4.1-1.4c0.6,0,0.2,0.7-2.5,4.3c-3.1,4.2-4.1,5.3-6.7,8.3
		c-1.9,2.2-6.6,6.7-6.9,6.7C-47.9,101.7-48,101.6-48.1,101.5z M24.8,84.5c-2.1-3.2-3.2-6.9-3.7-12c-0.1-0.8-0.1-0.8,0.2-1
		c0.6-0.4,3.8-0.6,4.1-0.2c0.1,0.1,0.1,0.6,0,1.7c-0.1,0.9-0.2,2.5-0.2,3.5c0,2.2-0.1,2.3-0.9,1.6c-0.6-0.6-1-0.7-1.1-0.6
		c-0.1,0.1,0,0.4,0.4,0.9c1.2,1.7,1.9,3.5,2.1,5.2c0.1,0.7,0.1,1.4,0.1,1.5C25.6,85.5,25.3,85.3,24.8,84.5z"/>
	<path class="st4" d="M48.8,142.4c-0.7-1.1-2.2-3.9-2.5-4.6c-0.5-1.1-2.1-6-2.6-7.9c-0.3-1.2-0.8-2.8-1-3.6c-1.2-4-1.5-9.9-0.7-15.6
		l0.2-1.8l-0.4-0.6c-0.2-0.3-1.1-1.4-2-2.3c-3-3.1-5.7-6.8-6.9-9.4c-1.4-3-3.5-10.2-4.2-14.4c-0.5-3-0.6-4.3-0.6-9.7
		c0-2.8,0-5.4-0.1-5.8L28,66l1.5-1.3c2.2-2,4.5-4.8,6.5-7.8c1.9-2.9,3-5.4,4-9.3c0.3-1,0.6-1.9,0.6-2c0.1-0.1,0.4-0.1,0.7-0.1
		c1,0,2-1,2.8-2.9l0.4-1l0-2.3c0-1.2,0-2.6,0.1-3c0.1-0.4,0.5-1.5,0.8-2.4c0.7-1.5,0.7-1.7,0.7-2.6c0-0.8-0.1-1.1-0.3-1.6
		c-0.6-1.2-2.3-2.4-4-2.8c-0.4-0.1-0.7-0.2-0.7-0.3c-0.2-0.5-0.3-4.1-0.2-5.8c0.1-1.6,0.2-2.2,0.6-3.8c0.3-1,0.6-2.4,0.7-3
		c0.2-1.4,0.1-1.7-0.9-2.4c-0.8-0.6-1-0.8-1.3-1.7c-1.5-3.8-2-6.9-1.8-11.7c0.1-2.9,0.2-4.5,0.5-7.1c0.3-2.7,0-6.1-0.8-8.1
		c-0.8-2-2.5-4.3-4.5-6.2c-1.5-1.4-1.8-1.6-1.9-1.4c0,0.1,0.3,0.5,0.8,1c1.2,1.3,1.9,2.2,2.7,3.9c0.8,1.6,1.5,3.9,1.5,5
		c0,0.9-0.3,0.9-0.9-0.3c-0.7-1.1-1.2-1.9-2.9-3.7c-1.8-2-3.9-3.8-7.4-6.4c-0.7-0.5-1.8-1.3-2.3-1.7c-3.4-2.6-5.8-3.9-8.2-4.5
		c-2.5-0.6-8.6-1.3-15.3-1.9c-0.5,0-1.4-0.2-1.9-0.3c-0.8-0.2-1-0.3-1.4-0.7c-0.4-0.5-0.7-1.1-0.9-2c-0.2-0.7-0.8-0.5-0.8,0.3
		c0,0.2,0.1,0.6,0.1,0.9c0.1,0.2,0.1,0.5,0.1,0.7c-0.1,0.3-1.7,1.5-3.6,2.7c-4.3,2.6-7.6,5.4-9.6,7.9c-2.3,2.9-4.9,7.5-6.1,10.6
		c-0.6,1.6-1.1,3.7-1.4,5.8c-0.1,1-0.3,2.3-0.4,2.8c-0.4,1.9-0.8,5.7-0.9,7.5c-0.1,1.4,0,2.2,0.1,3.2c0.1,0.7,0.2,2,0.3,2.9l0.1,1.6
		l-0.5,0.2c-0.6,0.3-1,0.8-1.3,1.8c-0.2,0.6-0.2,1.2-0.2,3.1c0,2.1,0,2.5,0.3,3.5l0.3,1.1l-0.4,3.4c-0.6,4.8-0.5,4.4-1.2,4.5
		c-1.4,0.2-2.7,1.2-3.4,2.6c-0.4,0.8-0.4,0.9-0.4,2c0,0.8,0.1,1.5,0.4,2.4c0.3,1.2,0.4,1.6,0.4,4.3c0.1,2.9,0.1,3,0.4,3.7
		c0.7,1.5,1.1,1.8,3.7,2.8c0.9,0.3,1.7,0.7,1.9,0.7c0.2,0.1,0.4,0.5,0.7,1.2c1.3,3.2,4.4,8.7,7,12.6c1.6,2.4,3.5,4,6.4,5.3
		c1.1,0.5,2.8,1.4,3.8,1.9c1.9,1,2,1.1,1.8,1.8c-0.1,0.3-0.1,0.3-2.7,0.2c-3.9-0.1-5.3,0.2-8.4,1.8c-2.9,1.5-5.5,3.4-8.3,6.2
		c-1.9,1.9-1.9,1.9-4.5,2.4c-4.4,0.8-7.7,2.5-10.5,5.4c-1.8,1.8-3.3,3.8-5.1,6.7c-1,1.6-1.4,2.2-1.6,2.2c-0.3,0-0.3,0-0.3-1.4
		c0-1.1,0.1-1.7,0.4-2.9c0.2-0.8,0.4-1.8,0.5-2.2c0.7-3.6,2.1-8.4,3.4-11.9c0.3-0.8,0.9-2.5,1.3-3.6c0.4-1.2,1.1-3,1.4-4.1
		c1.1-3,1.7-5.8,1.9-8.5c0.1-1.4,0.2-1.6,0.4-1.6c0.2,0,0.4,0.3,0.8,1.3c0.8,1.9,1.7,3.7,2.4,4.8c0.7,1,1.8,2.4,1.9,2.3
		c0.1-0.1-1-2.4-2.2-4.9c-2.3-4.9-3.4-9.3-4.2-17.4c-0.1-1.4-0.4-3.8-0.6-5.4c-0.3-2.7-0.3-3.1-0.3-8.8c0-6.3,0.1-7.4,0.7-13.1
		c0.9-8,2.2-14.1,4.5-20.9c0.6-1.9,1.3-4,1.6-4.8c1.1-3.6,3.9-8.9,7.5-14.2c1.7-2.6,2.6-3.7,6.2-7.9c3.1-3.6,3.9-4.5,5.6-5.7
		c2.9-2.2,5.8-3,8.4-2.4l0.9,0.2l0.7-0.6c2.1-1.6,4.3-2.7,6.5-3.3c2.5-0.7,8-1.4,11.2-1.4c2.8,0,4.3,0.3,8.6,1.9
		c4.4,1.6,5.5,2.1,9.1,4.3c3.8,2.4,6.7,4.7,10.6,8.5c5.7,5.6,7.8,8.8,11,16.6c3.1,7.7,4.6,11.9,5.9,15.9c2.9,9.4,4.2,16.1,4.5,23.2
		c0.3,6.4-0.3,11.3-3,23.8c-0.9,4.3-2.1,11.1-2.3,13.5c-0.2,2.6-0.1,6.3,0.3,8.9c0.1,0.6,0.3,1.9,0.4,2.8c0.6,4,1.9,8.6,5.6,18.8
		c1.4,3.9,2,5.9,2.2,7.1c0.2,1.1,0.2,4.5,0,5.7c-0.2,1.2-0.8,3.7-1.2,5c-1,3-2.7,6.1-5.6,10.5c-2.3,3.5-2.9,4.5-3.9,6.4
		c-0.8,1.7-1.4,3.2-1.7,4.6c-0.1,0.5-0.3,1.4-0.4,1.9c-0.4,1.6-1.1,5.3-1.2,6.2c-0.1,0.9-0.1,0.9-0.5,1.2
		C49.6,143.6,49.5,143.6,48.8,142.4z M45,96.2c0.2-0.7,0.4-1.7,0.5-2.3c0.5-2.4,1.2-4.6,3.4-10.2c1.2-3.1,2-5.5,2.1-6.3
		c0.1-0.4-0.1-0.1-0.5,1.1c-0.3,0.9-1.1,2.5-1.6,3.6c-1.9,3.7-2.8,6-3.6,9.4c-0.5,2.2-0.6,3-0.7,5.6c0,1.9,0,2.1,0.1,1.4
		C44.6,97.9,44.8,96.9,45,96.2z M38.4,76.2c0-3.8,1.1-7.2,3.8-12.6c0.9-1.9,1.5-3.4,1.7-4.4c0.1-0.3-0.1-0.1-0.6,0.8
		c-0.4,0.7-1,1.8-1.5,2.5c-1.1,1.5-2.2,3.9-2.8,5.5c-0.8,2.3-1.1,6.2-0.8,8.5c0.1,0.4,0.1,0.9,0.1,1c0,0.1,0,0.2,0,0.2
		C38.3,77.7,38.3,77,38.4,76.2z"/>
	<path class="st5" d="M4.7,56.4c-1.2-0.1-3.5-0.7-4.4-1.1c-1-0.5-2.3-1.4-2.2-1.8c0-0.3,0.1-0.3,2.7-0.3c1.8,0,3.3,0,4.5,0.2
		c2.9,0.3,4.8,0.4,5.8,0.2c4.8-0.8,4.6-0.7,4.6-0.4c0,0.3-0.9,1.2-1.8,1.8C12.1,56.1,8,56.8,4.7,56.4z M-1.5,53
		c-0.2-0.2,0-0.4,0.6-0.8c1.5-0.8,3.2-1.4,4-1.5c0.8-0.1,0.9-0.1,2.2,0.3c1.5,0.5,1.5,0.5,3.9-0.1c2.3-0.5,3.1-0.4,4.8,0.5
		c0.7,0.4,0.9,0.6,1,0.8c0,0.3-0.1,0.4-1.6,0.7c-1.2,0.3-5.9,0.3-8.3,0.1c-2.1-0.2-3.9-0.2-6,0.1C-1.2,53-1.5,53-1.5,53z"/>
	<path class="st6" d="M5.8,113.2c-1.1-0.1-4.5-0.8-5.9-1.2c-3.6-1.1-6.3-2.7-9.4-5.5c-1.8-1.7-2.6-2.3-3-2.5
		c-0.2-0.1-0.4-0.3-0.5-0.4c-0.3-0.8-0.5-11.4-0.3-14.2l0.1-1.2l0.8-0.6C-9,85-7,82.3-6,79c0.6-2.2,1.1-5.4,1.2-7.3
		c0-0.8,0-0.8,0.3-0.8c0.2,0,0.7,0.3,1.5,0.8c2.9,2.2,3.5,2.6,5,3.3c2.2,1.1,2.9,1.2,5.6,1.2c2.5,0,3.9-0.2,5.2-0.8
		c0.4-0.2,1.7-0.9,2.8-1.6c1.2-0.7,2.1-1.2,2.3-1.2c0.2,0,0.3,0.2,0.3,1.3c0.2,3,1,6.2,2.4,8.9c1.8,3.6,3.7,5.8,5.8,6.5
		c0.6,0.2,0.6,0.3,1.4,2.9c0.6,2.1,1.3,3.9,1.8,4.8c0.3,0.7,0.5,2.1,0.5,3.9c0,0.9,0,1.1-0.4,1.9c-0.6,1.2-1.8,3-2.7,3.9
		c-1.4,1.5-4.2,3.7-5.6,4.4c-1.6,0.8-4.9,1.7-7.6,2C12.4,113.3,7,113.3,5.8,113.2z M4.7,73.4c-2.3-0.6-4.6-1.9-8.7-4.7
		c-1.2-0.9-2.3-1.5-4.7-2.7c-3.7-1.8-4.8-2.5-6-3.8c-1.1-1.2-2.5-3.1-3.3-4.4c-4.5-7.7-5.1-8.8-6.8-13c-0.4-1-1.3-3.9-1.7-5.4
		c-0.4-1.5-0.7-3.7-0.7-5.7c-0.1-1.9,0.2-9,0.3-9.2c0.2-0.2,0.7,0.2,1,0.7c0.5,0.8,2.5,3.1,3.4,3.9c1.7,1.5,4,3,5.7,3.7
		c1.4,0.5,2.9,0.7,5.1,0.7l2,0l1.4-0.5c1.4-0.5,3.6-1.6,4.9-2.6c1.1-0.8,3.2-2.9,4-4.1C1,26,1.5,25,1.8,24.4
		c0.5-1.1,1.2-3.5,1.4-4.7c0.1-0.7,0.3-1,1.3-1.3c1.1-0.4,3-0.6,5-0.4l1.7,0.1l0.1,1.3c0.4,3.3,1.2,5.3,3.1,7.9
		c1.5,1.9,3.7,3.6,6.4,4.6c1.4,0.5,3.9,0.9,5.6,0.9c2.5,0,5.4-0.5,6.8-1.2c1.6-0.8,3.3-2.4,4.6-4.5c0.5-0.7,0.7-0.9,0.9-0.9
		c0.2,0,0.2,0.1,0.2,2.8c-0.1,8.2-0.5,11.5-2.1,18.3c-1,4.5-2.7,8.3-5,11.1c-0.8,1.1-3.8,4.4-4.5,5.1c-1.2,1.2-3.4,2.8-5.6,3.9
		c-1.8,1-4.7,3-6.1,4.2c-1.2,1.1-3.1,1.7-5.7,2.1C7.8,73.9,6.3,73.9,4.7,73.4z M9.3,57.1c1.4-0.2,3.5-0.8,4.3-1.3
		c0.3-0.2,1.2-0.8,1.9-1.5c0.8-0.6,1.6-1.3,1.7-1.4c0.3-0.2,0.3-0.2,0.1-0.5c-0.6-0.6-4.5-2.5-5.7-2.7C11,49.8,9.4,50.2,8,50.7
		l-0.9,0.4l-0.8-0.4c-1.9-1-3-1.1-5-0.4C-0.5,50.8-4,52.9-4,53.3c0,0.4,1.5,1.6,3.3,2.6c1.2,0.6,3.4,1.3,5,1.4
		C5.7,57.4,7.5,57.4,9.3,57.1z M-29,45.9c-0.9-0.5-1.9-1.5-2.3-2.2c-0.2-0.3-0.2-0.8-0.2-3.3l0-2.9l-0.7-1.9
		c-0.7-2.1-0.8-2.8-0.5-3.7c0.1-0.3,0.3-0.7,0.4-0.9c0.4-0.5,1.7-1.4,2.1-1.4h0.3l0,3.5c0,3.3,0,3.6,0.3,5.5
		c0.4,2.3,0.9,4.3,1.6,6.3c0.3,0.8,0.5,1.5,0.5,1.6C-27.4,46.6-28,46.4-29,45.9z M22.3,44.5c-1.4-0.5-3-1.7-4.1-2.9
		c-0.5-0.6-1.2-1.5-1.5-1.9c-0.5-0.8-0.5-0.8-0.4-0.3c0,0.3,0.2,0.8,0.4,1.2c0.8,1.6,4.5,4.3,6,4.3C23,44.8,22.8,44.7,22.3,44.5z
		 M-5.9,43.9c1.5-0.9,2.3-1.6,2.9-3c0.4-0.8,0.8-2,0.6-2.1c0,0-0.1,0.2-0.3,0.5c-0.7,1.8-2.8,4.1-4.2,4.9c-0.4,0.2-0.7,0.4-0.7,0.4
		C-7.5,44.7-6.6,44.3-5.9,43.9z M40.9,43.5c0-0.4,0.2-1.4,0.3-2.2c0.3-2,0.4-5.2,0.2-8.1c-0.3-4.6-0.3-5.4-0.1-5.5
		c0.3-0.1,1.4,0.3,2.2,0.9c1.6,1.2,1.8,2.5,0.5,5.3c-0.8,1.7-0.9,2.4-1,5.3c-0.1,2.3-0.1,2.7-0.4,3.3c-0.4,0.9-1.1,1.7-1.5,1.7
		C40.9,44.3,40.9,44.3,40.9,43.5z M8.3,42c1-0.2,3-0.9,3.5-1.4c0.2-0.2,0.4-0.4,0.3-0.4c0,0-0.5,0.1-1,0.2c-1.3,0.4-3.5,0.6-4.7,0.4
		c-1.6-0.2-2.5-0.7-3.8-2c-0.7-0.7-1-0.9-1.3-0.6C1.1,38.6,1.3,39,2,39.8c1.2,1.2,2.1,1.8,3.8,2.1C6.7,42.2,7.2,42.2,8.3,42z
		 M10.8,37.3c0.4-0.4,0.3-0.8-0.1-1c-0.6-0.3-1.2,0.5-0.7,1C10.2,37.6,10.5,37.6,10.8,37.3z M-14.2,32.2c-2.4-0.6-5.7-2.4-7.3-4.1
		c-1.3-1.3-2.9-3.7-3.8-5.5c-0.9-1.7-1.3-4.1-1.3-6.7c0-1.4,0.1-1.8,0.8-2.3c0.8-0.7,3.1-1.6,5-1.9c1.1-0.2,4.9-0.5,6.3-0.5
		c2.1,0,5.6,0.4,7.5,1c3.1,0.8,4.7,1.5,6.6,2.8c2.4,1.6,2.6,1.9,2.6,3.3c0,3.8-1.7,7.5-4.7,10.4c-2,1.8-3.8,2.8-6.2,3.4
		C-11,32.4-13,32.5-14.2,32.2z M24.1,31.2c-2.9-0.6-4.6-1.3-6.3-2.4c-2.4-1.6-4.8-5.3-5.2-7.9c-0.3-1.8,0-3.9,0.6-5.1
		c0.9-1.6,3.2-3,6.8-4.2c3-1,4.7-1.3,7.9-1.3c4.1,0,7.6,0.6,9.9,1.7c1.5,0.7,2.2,1.2,2.5,1.9c0.3,0.7,0.3,1.1-0.1,2.9
		c-1.5,6.1-2.3,7.9-4.9,11.1c-1.6,2-2.3,2.4-4.6,2.9C28.5,31.4,25.5,31.5,24.1,31.2z M-9.5,21.6c0.9-0.4,1.7-1.4,1.5-2.1
		c-0.2-0.6-0.1-0.7,2.5-0.8c3-0.1,3.2-0.2,2-0.6c-0.8-0.3-1.1-0.3-6.3-0.4c-4.4-0.1-5.7-0.1-7-0.3c-0.9-0.1-1.7-0.3-1.8-0.3
		c-0.1,0,0.1,0.1,0.5,0.3c1.1,0.6,0.9,1.1-0.4,1.1l-0.7,0l0.6,0.1c0.3,0.1,2,0.1,3.7,0.2c1.7,0,3.2,0,3.3,0c0.1,0,0.2,0.2,0.1,0.6
		c0,1,0,1.1,0.4,1.6C-10.6,21.8-10.3,21.9-9.5,21.6z M26.3,20.9c0.6-0.4,0.9-1.3,0.7-1.8c-0.1-0.2-0.1-0.4-0.1-0.5
		c0.1-0.2,0.3-0.2,3-0.3c2.2,0,3.1-0.1,3.5-0.3l0.6-0.2l-1.4,0c-1.3,0-1.4,0-1.4-0.3c0-0.3,0.2-0.4,1.5-0.7c0.5-0.1,1-0.2,0.9-0.3
		c0,0-0.8,0.1-1.7,0.2c-1.3,0.2-2.7,0.3-5.9,0.4c-4.6,0.1-5.9,0.3-6.8,0.7l-0.6,0.3l1.5,0c0.8,0,1.9,0,2.4,0.1l0.9,0.1v1
		c0,1.2,0.1,1.4,1,1.8C25.1,21.3,25.8,21.3,26.3,20.9z M3.4,15.7c-0.9-0.8-3.4-2.3-5.3-3.3c-3.9-1.9-6.6-2.6-11.6-2.8
		c-3.4-0.1-7.7,0-9.8,0.3c-0.7,0.1-1.4,0.2-1.6,0.2h-0.4l-0.1-0.9c0-0.5-0.1-1.9-0.2-3.1c-0.1-2.8,0-3.5,1.3-10.9
		c1-5.9,1.5-7.4,4.2-12.3c2.3-4.2,3.2-5.5,5.3-7.7c1.3-1.4,5.1-4.6,7.3-6.4c0.6-0.4,1.3-1.1,1.7-1.5c0.4-0.4,0.7-0.7,0.8-0.7
		c0.1,0,0.4,0.3,0.7,0.6c1,0.9,2.3,1.5,4.8,1.9c4.4,0.8,11.2,2.4,14.7,3.5c1.9,0.6,4.6,1.9,6.7,3.3c2.3,1.6,6.7,5.1,8.3,6.7
		c1.9,2,4.4,4.7,5.6,6.3l1,1.3l-0.1,1.4c0,0.8-0.1,2.4-0.2,3.6c-0.2,3.2-0.2,6.6,0.1,8.8c0.2,2,0.6,3.3,1.3,4.7
		c0.4,0.9,0.5,1.2,0.3,1.3c-0.1,0.1-3.7-0.5-4.7-0.7c-1.3-0.3-4.5-0.4-6.9-0.3c-4.8,0.3-8.4,1.4-11.8,3.7c-3.1,2.1-3.6,2.4-4.2,2.7
		c-0.8,0.4-2.3,0.6-4.7,0.7l-2.1,0.1L3.4,15.7z M0.1,8.9c0.5-0.5,0.1-1.1-1.2-2.3c-0.8-0.7-2.7-1.8-3.2-1.8c-0.1,0-0.5-0.1-0.9-0.3
		c-1.1-0.4-3-0.6-6.3-0.7c-3.3,0-3.9,0.1-6,0.8c-0.9,0.3-1.3,0.5-2.3,1.4c-0.7,0.6-1.3,1.2-1.5,1.4l-0.3,0.4l1-0.5
		c1.1-0.5,2.7-1,4.1-1.3c2.3-0.4,6.3-0.4,9.3,0.1c1.6,0.2,3.2,0.9,4.9,2.2c0.6,0.4,1.5,0.8,2,0.8C-0.2,9.2,0,9.1,0.1,8.9z M16.9,7.1
		c2.6-1,2.9-1.1,4.2-1.2c1.9-0.2,7.4-0.1,9,0.2c1.1,0.2,3,0.6,3.8,0.9c0.2,0.1,0.3,0.1,0.3,0.1c0-0.1-1.5-1.2-2.3-1.6
		c-1.6-0.9-3.1-1.3-6.1-1.6c-2.4-0.3-4.4-0.2-6.8,0.2c-2.6,0.5-3.4,0.7-4.6,1.5c-1,0.7-1.6,1.2-1.6,1.5c0,0.3,0.6,1,0.9,0.9
		C14,8.2,15.3,7.7,16.9,7.1z"/>
</g>
<g id="outline" transform="matrix(3.8689,0,0,3.8689,418.718,184.938)">
	<path class="st7" d="M-33.5,95.4c-1.1-0.1-4-0.3-5.5-0.6c-3.4-0.5-4.7-0.8-9.2-2.5c-1.3-0.5-2.9-1-3.5-1.2
		c-0.6-0.2-1.2-0.4-1.4-0.4c-0.2-0.1-0.7-0.3-1.2-0.5c-0.4-0.2-1.3-0.6-2-1c-0.7-0.4-1.9-1.1-2.7-1.5c-2.2-1.2-4.3-2.3-4.9-2.7
		c-0.3-0.2-0.8-0.5-1.1-0.7c-0.3-0.2-0.9-0.6-1.2-0.8c-0.3-0.2-0.9-0.6-1.2-0.8c-0.3-0.2-0.8-0.6-1-0.8l-0.4-0.4l-0.1-1.4
		c-0.1-1.4-0.1-2.3,0.1-3.7c0.2-1.2,0.6-3.6,1.1-5.9c0.2-1.1,0.4-2.1,0.4-2.2c0-0.1-0.1-0.2-0.3-0.3c-0.5-0.2-0.7-0.5-0.7-0.8
		c0-0.4,0.2-0.6,1-1.3c0.4-0.3,0.7-0.6,0.7-0.7c0-0.1,0.1-0.5,0.2-1l0.2-0.9l-0.1-0.9c-0.1-0.7-0.1-1.3-0.1-2.9
		c0-2.1,0.1-2.7,0.4-4.8c0.2-1.5,0.5-2.2,1.2-4.2c1.7-4.5,3.4-9.3,4-11.6c0.6-2.1,0.8-3.4,0.8-5.6c0-1.1,0-1.3-0.2-2.4
		c-0.1-0.7-0.3-1.9-0.5-2.7c-0.1-0.8-0.3-1.9-0.4-2.5c-0.3-1.7-0.3-2.4-0.4-4.9c-0.1-2.7,0-4.3,0.3-7.2C-61,11.2-60.6,9-60.3,7
		c0.5-2.4,0.7-3.4,2.4-8.4c0.9-2.7,2.3-6,3.3-7.7c0.8-1.4,1.8-2.9,2.5-3.8c2-2.7,2.4-3.3,3-4c1.1-1.4,2.4-2.7,3-3.3
		c1.1-0.9,2.4-1.7,3.4-2.1c1.2-0.4,2.6-0.5,3.5-0.2l0.4,0.2l0.4-0.3c1.2-1,3.1-1.9,5.1-2.3c1.5-0.3,4-0.7,5.3-0.8
		c2.2-0.2,3.3,0,6.6,1.1c2,0.7,2.9,1.1,4.3,1.8c3.4,1.9,5.7,3.7,8.7,6.7c3,3,4.5,5.3,6.3,9.8C1,0.7,1.9,3.3,3.2,8.2
		C3.8,10.3,4.1,12,4.4,14c0.3,2.3,0.4,3.2,0.4,5.4c0,3.8-0.4,6.7-1.6,12.1c-0.8,3.6-1.5,7.4-1.7,9.1c-0.2,1.8-0.1,3.7,0.3,6.2
		c0.5,3,1.3,5.8,2.8,9.9c0.8,2.2,1.6,4.7,1.9,5.6c0.3,1.1,0.4,2.5,0.3,3.8c-0.1,0.9-0.2,1.6-0.5,3l-0.1,0.3l0.7,1.2
		c1.1,2,1.4,2.6,1.8,4.1c0.3,0.9,0.6,2.7,0.8,3.9l0.1,0.9L9.3,80c-0.5,0.7-1.8,1.9-2.6,2.5c-0.5,0.4-1.5,1.2-2.4,1.9
		c-1.9,1.5-3.6,2.7-4.6,3.2c-1.8,1-5.1,2.5-7.6,3.3c-0.6,0.2-1.7,0.6-2.4,0.9c-2.2,0.8-4.2,1.3-6.2,1.7c-0.4,0.1-1.1,0.2-1.6,0.3
		c-4,0.9-9,1.5-13.1,1.6C-32.2,95.4-33.2,95.4-33.5,95.4z M-29.1,93.7c0.4,0,0.8-0.1,0.8-0.1c0,0-0.3-0.4-0.7-0.7
		c-1.3-1.2-4.6-4.7-5.9-6.3c-3.1-3.9-6.3-9.6-8-14.6c-1.6-4.6-2.3-9.3-1.8-13.3c0.3-2.8,0.8-5.1,1.4-6.7c0.4-1,1.1-2.4,1.6-3.2
		c0.6-0.9,0.9-1.1,1.2-0.8c0.2,0.2,0.2,0.3-0.1,1c-0.6,1.4-0.8,1.9-1,2.6c-0.1,0.4-0.2,0.8-0.2,0.8c0.1,0.1,0.8-0.9,1.1-1.7
		c0.6-1.3,1-2.5,1.2-4.5c0.1-0.7,0.1-0.8,0-0.9c-0.3-0.2-3,0-3.9,0.2c-0.7,0.2-1.9,0.8-2.8,1.4c-1.2,0.8-2.3,1.7-3.7,3.2
		c-1.9,1.9-2.3,2.4-4.9,5.9c-1.1,1.5-2.9,3.6-4.1,4.8c-0.4,0.4-1.6,1.6-2.7,2.5c-2.3,2.1-2.7,2.4-3.7,3.2c-0.4,0.3-0.8,0.6-0.8,0.7
		c0,0.1,1.8,0.5,3.8,0.8c3.5,0.6,7.1,0.6,9.4,0.1c0.6-0.1,0.8-0.1,1.1,0.1c0.6,0.5,0.3,1.5-0.9,3c-0.7,0.9-2.5,3-3.3,3.9
		c-0.4,0.4-0.7,0.8-0.7,0.8c0,0,0.4,0.3,0.8,0.6c0.4,0.3,1.1,0.8,1.5,1.1c0.6,0.5,4.6,4.4,6.1,6c1.2,1.3,2,2.3,2.4,3.4
		c0.2,0.5,1,3,1.4,4.2c0.1,0.5,0.3,0.9,0.4,1c0.1,0,0.4,0.1,0.8,0.2c6,1.1,7,1.3,9.2,1.4C-33.6,93.7-29.9,93.7-29.1,93.7z
		 M-25.3,93.4c0.8-0.1,1.6-0.1,1.6-0.2c0,0,0.2-1,0.3-2.1c0.4-3,0.5-3.7,0.9-5.3c0.8-3.1,1.4-5,2.5-7.7c1.5-3.6,2.5-7.2,2.8-9.9
		c0.1-0.5,0.1-0.9,0.1-0.9c0,0-0.2,0.2-0.4,0.4c-0.5,0.6-1.7,1.8-2.4,2.3c-0.7,0.5-1.8,1.2-2.8,1.6c-1.8,0.7-4.6,1.2-6.7,1.1
		c-2.8-0.1-4.9-0.4-6.6-1c-1.8-0.6-3.2-1.3-4.7-2.5c-0.5-0.4-1-0.7-1-0.7c-0.1,0.1,0.3,1.5,0.8,2.9c1.3,4.1,3,7.7,5.2,11.2
		c0.7,1.1,2.5,3.7,3.4,4.9c1.7,2.3,4.9,5.9,5.2,5.9C-26.8,93.5-26.1,93.5-25.3,93.4z M-21.4,92.9c0.3-0.1,0.8-0.1,1.2-0.2
		c0.3,0,0.9-0.1,1.4-0.2c0.4-0.1,0.9-0.2,1.1-0.2c0.3,0,0.3-0.1,1.3-1.6c0.6-0.9,1.3-2,1.5-2.5s0.8-1.4,1.2-2.1
		c0.4-0.7,1.1-1.9,1.5-2.6c0.8-1.6,1.5-2.6,1.8-3c0.2-0.2,0.2-0.2,0.1-0.7c-0.2-0.9-0.4-2.5-0.5-3.7c-0.1-1.4,0-5.3,0.1-6.7
		c0.1-0.5,0.1-1,0.1-1.1c0,0-0.1-0.2-0.3-0.3c-0.7-0.4-2.2-1.9-3.3-3.3c-0.2-0.2-0.4-0.4-0.4-0.4c0,0-0.1,0.3-0.1,0.5
		c-0.2,1.5-0.6,4.6-0.9,5.8c-0.4,2-1.5,5.2-2.8,8.4c-0.6,1.6-1.6,4.5-2.3,6.9c-0.3,1-0.7,2.2-0.8,2.5c-0.3,0.9-0.6,1.9-0.8,3.3
		c-0.1,0.6-0.2,1.1-0.2,1.1C-22.5,93.1-22,93.1-21.4,92.9z M-12.8,91.2c1-0.3,2.5-0.8,3.3-1c1.4-0.4,2.7-0.9,3.5-1.3l0.3-0.1
		l-1.5-2.3c-0.8-1.2-1.7-2.6-1.9-3c-0.2-0.4-0.4-0.7-0.4-0.7c0,0-0.4,0.8-0.8,1.7c-1.3,2.8-1.6,3.3-3.5,5.8c-0.6,0.7-1,1.3-1,1.4
		C-14.8,91.8-14.5,91.8-12.8,91.2z M-46.3,91.1c-0.7-1.9-1.7-3.6-2.9-5.2c-0.7-0.9-3.1-3.6-5.1-5.5c-1.3-1.3-2-2-2.7-2.5
		c-1.3-1-1.6-1.2-1.8-1.6c-0.4-0.7-0.2-1,1.5-2.7c1.3-1.3,3.3-3.7,3.3-3.8c0,0-0.1-0.1-0.2,0c-0.1,0-0.7,0.1-1.3,0.1
		c-1.9,0.2-5.2-0.1-8.5-0.8c-0.6-0.1-1.2-0.2-1.2-0.2c0,0-0.1,0.6-0.2,1.2c-0.1,0.6-0.2,1.5-0.3,2c-0.5,3.4-0.9,6.7-0.9,8.5l0,0.6
		l1.2,1c1.4,1.2,2,1.6,3.5,2.5c1.2,0.8,3.7,2.1,3.8,2.1c0,0,0-0.3-0.1-0.6c-1-3.6-1.7-7.2-1.6-7.9c0.1-0.6,0.7-0.8,1.1-0.3
		c0.4,0.4,0.9,2.3,1.3,4.6c0.2,1.5,1,5.1,1.2,5.3c0.1,0.1,3.2,1.4,5.4,2.2c2.1,0.8,4.4,1.5,4.6,1.5C-46.1,91.5-46.2,91.3-46.3,91.1z
		 M-4.2,88.1c0.1-0.1,0.2-0.2,0.2-0.5c0.1-1.2,1-5.3,1.3-6.3c0.4-1.3,1.2-2.7,2.9-5.3c1.4-2.2,1.9-3.1,2.7-4.6
		c1.5-3.1,2-6.1,1.5-8.7c-0.2-0.8-0.9-3.1-1.8-5.4C1,53,0,49.2-0.4,46.2c-0.2-1.3-0.3-3.3-0.3-4.1c0-0.8,0.2-2.9,0.4-4.1
		c0.4-2.7,0.7-3.8,1.7-8.8c0.4-1.9,0.9-4.7,1-6.2c0.2-1.6,0.2-5.4,0-7.1C1.9,11.1,0.4,5.3-1.7-0.3C-4.4-7.7-5.8-10.5-7.8-13
		c-0.8-1-3.4-3.6-4.7-4.7c-2.1-1.8-4.6-3.5-6.7-4.5c-1.6-0.8-4.8-1.9-6.2-2.2c-0.7-0.2-3.3-0.2-4.7,0c-3.7,0.4-5.4,0.9-7.4,2.4
		c-1,0.7-1,0.7-1.4,0.6c-1.7-0.5-3.7,0.1-5.9,2c-0.7,0.6-4.3,4.8-5.3,6.1c-0.7,1-2.2,3.3-2.9,4.5c-0.5,0.9-1.8,3.5-2.1,4.2
		c-0.1,0.2-0.3,0.9-0.5,1.5c-0.2,0.6-0.6,1.8-0.9,2.8c-1.2,3.6-2,6.9-2.6,11.5c-0.6,4.8-0.8,10.2-0.4,13.9c0.1,0.9,0.2,2.2,0.3,2.9
		c0.5,5.3,1.1,8,2.5,10.8c0.7,1.5,1.8,3.8,1.7,3.9c0,0-0.7-0.5-1-0.8c-0.7-0.7-1.3-1.7-2-3.3c-0.3-0.6-0.5-1.1-0.5-1.1
		c0,0-0.1,0.1-0.1,0.3c-0.3,2.7-0.7,4.3-1.5,6.5c-0.2,0.6-0.5,1.5-0.7,1.8c-0.1,0.4-0.4,1.1-0.6,1.7c-0.9,2.4-1.6,4.9-2.1,7.1
		c-0.1,0.5-0.3,1.2-0.4,1.7c-0.2,0.6-0.2,1.1-0.2,1.5c0,0.8,0,0.8,0.8-0.6c2-3.4,3.9-5.3,6.3-6.4c1.1-0.5,1.7-0.7,3.2-1
		c0.7-0.1,1.4-0.3,1.5-0.3c0.1,0,0.5-0.4,0.9-0.8c1.5-1.5,2.6-2.3,4-3.2c1-0.6,2.6-1.4,3.5-1.7c0.9-0.3,2.5-0.4,3.6-0.3
		c0.5,0,0.9,0.1,0.9,0.1c0,0,0-0.1,0.1-0.2c0-0.1-0.1-0.2-1-0.7c-0.6-0.3-1.6-0.8-2.2-1.1c-1.8-0.9-2.8-1.7-3.9-3.2
		c-0.4-0.5-2.3-3.7-2.7-4.5c-0.4-0.8-1.3-2.6-1.6-3.4c-0.1-0.3-0.2-0.5-0.3-0.5c-0.1,0-0.6-0.2-1.1-0.4c-1.2-0.5-1.4-0.6-1.8-1
		c-0.6-0.6-0.7-1-0.8-3.1c-0.1-1.7-0.1-1.9-0.3-2.7c-0.4-1.4-0.3-2.3,0.3-3.2c0.4-0.6,1.4-1.2,1.9-1.2c0.1,0,0.3,0,0.3-0.1
		c0,0,0.1-0.6,0.2-1.3c0.1-0.7,0.2-1.6,0.3-2.1c0.2-1.1,0.1-1.2,0-1.8c-0.2-0.8-0.2-2.9-0.1-3.7c0.2-0.8,0.4-1.3,0.9-1.5l0.3-0.2
		l0-0.8c0-0.4-0.1-1.2-0.2-1.7c-0.2-1.5-0.1-3.3,0.5-6.8c0.6-3.9,0.9-4.8,2-7c1.2-2.4,2.7-4.5,4.1-5.8c1.1-1,3.1-2.5,4.5-3.4
		c0.8-0.5,1.6-1.1,1.9-1.4c0.2-0.2,0.2-0.3,0.2-0.5c-0.1-0.4-0.1-0.9,0.1-1.1c0.1-0.1,0.2-0.2,0.3-0.2c0.2,0,0.4,0.3,0.4,0.6
		c0.1,0.4,0.3,0.9,0.6,1.1c0.3,0.3,0.9,0.4,1.9,0.5c2.2,0.2,4.8,0.5,5.8,0.6c3.7,0.5,4.6,0.7,6.3,1.7c0.9,0.6,5,3.5,6.3,4.6
		c1.3,1.1,2.8,2.7,3.5,3.9c0.3,0.4,0.3,0.4,0.3,0.3c0-0.3-0.3-1.6-0.6-2.3c-0.4-1-1-1.9-1.7-2.7c-0.6-0.7-0.7-0.7-0.6-0.9
		c0.1-0.2,0.4-0.1,1,0.4c1.8,1.5,3,3.3,3.5,5c0.4,1.2,0.4,3,0.1,5.3c-0.1,1.2-0.2,2-0.2,3.8c0,2.1,0,2.4,0.2,3.3
		c0.2,1.1,0.6,2.3,0.9,3.2c0.2,0.4,0.3,0.5,0.6,0.8C-9,8.8-8.8,9.1-8.8,9.5c0,0.4-0.2,1.6-0.5,2.7c-0.3,1.1-0.4,2.4-0.3,4.1l0.1,1.3
		l0.5,0.1c1.1,0.3,2.1,1,2.4,1.8c0.2,0.4,0.2,0.5,0.2,1c0,0.6-0.1,0.9-0.7,2.2l-0.3,0.6l0,1.6c0,1.3,0,1.7-0.1,2
		c-0.3,1-0.8,1.8-1.4,2.1c-0.1,0.1-0.4,0.1-0.6,0.2l-0.4,0l-0.3,1.1c-0.7,2.5-1.3,3.8-2.3,5.5c-1.3,1.9-2.6,3.5-4,4.8l-0.9,0.8
		l0,3.6c0,3.8,0,4.1,0.4,6.2c0.3,2.1,1.7,6.7,2.5,8.4c0.4,0.9,1.6,2.7,2.7,4.1c0.3,0.3,0.9,1,1.4,1.5c0.5,0.5,1.1,1.2,1.2,1.4
		c0.3,0.4,0.3,0.5,0.2,1c0,0.3-0.1,0.9-0.2,1.3c-0.1,0.6-0.1,1.3-0.1,2.8c0,2.8,0.1,4.1,0.7,6.2c0.2,0.6,0.4,1.5,0.5,1.9
		c0.1,0.4,0.5,1.6,0.8,2.6c0.7,2,1.2,3.1,2.2,4.9C-4.6,88.1-4.5,88.2-4.2,88.1z M-1.5,86.7c2-1.1,4.2-2.6,6-4.1
		c0.4-0.4,1.1-0.9,1.5-1.2c0.4-0.3,0.8-0.6,0.9-0.7l0.2-0.1l-0.3-1c-0.2-0.5-0.4-1.4-0.5-2c-0.3-1.3-0.5-2.2-0.7-3
		c-0.3-1-0.6-2-0.7-2c0,0-0.2,0.2-0.3,0.4c-0.4,0.7-1.5,2.6-2.7,4.4c-2.5,3.8-3.5,5.8-4.3,8.8c-0.2,0.7-0.2,1-0.2,1
		C-2.6,87.3-2.1,87.1-1.5,86.7z M-25.9,69.7c1.9-0.3,3.3-0.8,4.2-1.3c0.7-0.4,2.1-1.5,2.8-2.2c0.7-0.7,1.6-1.9,1.9-2.7l0.2-0.5l0-1
		c0-1,0-1-0.4-1.9c-0.3-0.7-1.2-3.3-1.3-3.9c0-0.2-0.1-0.3-0.5-0.4c-1-0.4-1.8-1.1-2.6-2.4c-1.4-2.2-2.2-4.4-2.3-6.8
		c0-0.4-0.1-0.8-0.1-0.8c0-0.1-0.3,0.1-0.8,0.4c-1.9,1.2-2.6,1.5-4.1,1.7c-1,0.1-2.6,0.1-3.3-0.2c-1.3-0.4-2.6-1.1-3.9-2.1
		c-0.8-0.7-1.3-1-1.3-0.9c0,0-0.1,0.5-0.1,1.1c-0.1,1.6-0.3,2.7-0.7,4c-0.6,1.8-1.9,3.6-3.5,4.8l-0.7,0.5l-0.1,0.5
		c-0.2,1.6-0.2,6.3,0,7.9c0.1,0.7,0.1,0.8,0.2,0.9c0.2,0.1,0.8,0.6,1.8,1.5c1.6,1.5,2.7,2.2,4.2,2.9c1.3,0.6,3.3,1.1,5,1.3
		C-30.2,70-26.7,69.9-25.9,69.7z M-61.8,61.2c2.4-2.4,4.1-4.3,6.3-7.3c0.6-0.8,1.2-1.6,1.3-1.8c0.2-0.3,0.3-0.4,0.2-0.4
		c-0.2,0-1.3,0.3-2,0.6c-2,0.9-3.3,2.2-4.9,4.6c-1.1,1.6-2.3,4.2-2.6,5c-0.2,0.7-0.2,0.8-0.1,0.8C-63.4,62.7-62.6,62-61.8,61.2z
		 M-19.3,52.1c-0.1-1-0.7-2.2-1.4-3.2c-0.3-0.4,0-0.7,0.4-0.5c0.1,0,0.3,0.2,0.5,0.3c0.2,0.2,0.3,0.2,0.3,0.1c0-0.1,0.1-0.8,0.1-1.7
		c0-0.9,0.1-1.8,0.1-1.9c0-0.3,0-0.3-0.3-0.3c-0.4,0-1.5,0-1.8,0.2c-0.2,0.1-0.2,0.1-0.2,0.4c0,1,0.6,3.8,1.1,5
		c0.4,1,1.3,2.6,1.4,2.5C-19.2,52.8-19.2,52.5-19.3,52.1z M-28.1,45.8c1.4-0.2,2.2-0.6,3.2-1.4c0.8-0.7,2-1.5,3.2-2.2
		c1.7-1,2.8-1.7,3.6-2.5c0.9-0.9,2.6-2.9,3.3-3.9c0.6-0.9,1.4-2.6,1.8-3.7c0.7-1.9,1.5-6.2,1.6-8.4c0-0.6,0.1-2.1,0.1-3.3
		c0-1.2,0.1-2.2,0.1-2.4c0-0.2,0-0.3,0-0.3c0,0-0.2,0.2-0.4,0.5c-0.7,1.1-1.8,2.1-2.7,2.5c-0.8,0.4-2.9,0.8-4.3,0.8
		c-0.7,0-2.2-0.2-3-0.5c-3.5-1-5.9-3.9-6.2-7.5c0-0.5-0.1-0.9-0.2-0.9c-0.1-0.1-0.7-0.1-1.9-0.1c-0.7,0-1.7,0.2-2.1,0.4
		c-0.3,0.2-0.3,0.2-0.4,0.6c-0.6,2.7-1.1,3.8-2.6,5.3c-0.8,0.9-1.5,1.4-2.5,2c-1.6,0.9-2.5,1.2-4.1,1.2c-1.7,0-2.9-0.3-4.1-0.8
		c-0.6-0.3-1.8-1.1-2.4-1.6c-0.6-0.5-1.6-1.7-2.2-2.4c-0.3-0.4-0.4-0.5-0.4-0.4c0,0.1-0.1,1.4-0.1,2.9c-0.1,3.2,0,4.1,0.5,5.8
		c0.8,3.2,1.9,5.5,4.2,9.3c1.8,3,2.8,4.3,4,5.1c0.3,0.2,1.3,0.7,2.4,1.2c1.6,0.8,2.1,1.1,3.3,1.9c2.1,1.4,3.5,2.2,4.3,2.5
		C-30.9,46.1-30,46.1-28.1,45.8z M-51.7,28.5c-0.4-1.3-0.7-2.2-0.8-3.3c-0.3-1.8-0.3-2.4-0.3-4c0.1-1.9,0.1-1.8-0.7-1.3
		c-0.3,0.2-0.5,0.4-0.6,0.7c-0.3,0.6-0.2,1,0.2,2.3c0.5,1.4,0.5,1.8,0.5,3.4c0,1.3,0,1.3,0.1,1.6c0.3,0.5,0.8,1,1.4,1.3
		c0.3,0.1,0.5,0.3,0.5,0.2C-51.4,29.4-51.5,29-51.7,28.5z M-9.2,27.7c0.4-0.5,0.4-0.9,0.5-2.5c0.1-1.8,0.1-2.1,0.7-3.4
		c0.6-1.3,0.5-1.9-0.2-2.6c-0.3-0.3-1-0.7-1.2-0.7c-0.1,0-0.1,0.3,0,1.2c0,0.7,0.1,2.4,0.1,3.9c0,2.2,0,2.8-0.1,3.5
		C-9.6,27.6-9.7,28-9.7,28C-9.7,28.2-9.4,28-9.2,27.7z M-41.2,20.9c1.3-0.1,2.7-0.6,3.5-1.2c1.9-1.3,3.4-3.4,3.9-5.4
		c0.2-0.8,0.3-2,0.2-2.3c-0.2-0.4-1.7-1.5-2.8-2c-2.2-1-5.6-1.6-8.3-1.4c-2.1,0.1-3.1,0.3-4.4,0.8c-0.7,0.3-1.2,0.6-1.4,1
		c-0.1,0.2-0.1,0.4-0.1,1.2c0.1,2.1,0.5,3.3,1.8,5.2c1.1,1.7,2,2.4,3.8,3.3C-43.4,20.9-42.8,21-41.2,20.9z M-17.6,20.3
		c1-0.1,2-0.3,2.6-0.6c1-0.5,2.7-2.7,3.4-4.5c0.3-0.8,1-3,1.2-4.1c0.1-0.6,0.1-0.6,0-0.9c-0.4-0.9-2.4-1.7-4.9-2
		C-16.6,8-19,8-19.9,8.2c-0.8,0.1-2.4,0.6-3.4,1c-2.7,1-3.6,2.2-3.6,4.2c0,1.1,0.4,2.2,1.3,3.4c1.2,1.8,2.9,2.9,5.2,3.4
		C-19,20.4-18.8,20.5-17.6,20.3z M-29.5,10.9c0.4-0.1,1-0.2,1.2-0.3c0.2-0.1,1-0.6,1.8-1.1c0.8-0.5,1.7-1.1,2.2-1.3
		c2-1,4.1-1.5,7.1-1.5c1.5,0,2.2,0.1,4.2,0.4c0.8,0.1,1.4,0.2,1.4,0.2c0,0-0.1-0.3-0.2-0.6c-0.7-1.6-1-4-0.8-7.8
		c0.1-1.2,0.1-2.4,0.2-2.6c0-0.3,0-0.6-0.1-0.7C-13-5-16.4-8.8-17.3-9.6c-1-0.9-3.2-2.6-4.1-3.2c-1.3-0.9-2.5-1.5-3.6-1.9
		c-1.5-0.5-4.8-1.3-7.7-1.9c-3.3-0.7-3.9-0.9-4.5-1.5c-0.1-0.1-0.3-0.3-0.3-0.3c0,0-0.2,0.2-0.4,0.4c-0.2,0.2-0.7,0.6-1.1,1
		c-2.6,2.1-4.6,4-5.5,5.1c-0.5,0.7-1.3,2-2.2,3.7c-1.4,2.6-1.7,3.5-2.3,6.8c-0.8,4.9-0.9,5.2-0.8,7.2c0,0.9,0.1,1.6,0.1,1.6
		c0,0,0.3,0,0.7-0.1c1.9-0.3,6.7-0.3,8.6-0.1c1.1,0.2,2.4,0.5,3.3,0.8c1.5,0.6,3.9,1.9,4.7,2.7l0.3,0.3l1,0
		C-30.7,11-29.9,11-29.5,10.9z M-7.7,62.8c-0.1-0.3-0.2-2-0.1-3.2c0.1-2.7,0.9-5.2,2.6-8.4c0.7-1.3,1.3-2.8,1.5-3.9
		c0.1-0.4,0.2-0.7,0.2-0.7c0,0,0.1,0.4,0,0.9c-0.1,1.2-0.3,2-1.5,5c-0.9,2.3-1.6,4.4-1.8,5.4c-0.1,0.5-0.3,1.2-0.4,1.7
		c-0.2,0.9-0.4,2.1-0.4,2.8C-7.6,62.8-7.6,63-7.7,62.8z M-11.3,49.6c-0.2-0.3-0.5-1.5-0.5-2.7c-0.1-2.9,0.6-5.3,2.3-7.9
		c0.4-0.7,1-1.7,1.3-2.5l0.2-0.4l0,0.3c0,0.4-0.1,1.4-0.3,2c-0.1,0.3-0.5,1.1-0.9,1.9c-1.7,3.5-2.4,6-2.2,8.5c0,0.5,0.1,0.9,0.1,1
		C-11.1,49.7-11.2,49.7-11.3,49.6z M-32.4,36.4c-0.8-0.1-1.9-0.4-2.6-0.8c-1.1-0.5-2.2-1.4-2.2-1.7c0-0.1-0.1-0.2-0.2-0.4
		c-0.4-0.5-0.3-0.7,0.2-0.7c0.4,0,1.4-0.3,1.8-0.5c0.6-0.4,1.5-0.7,2.1-0.8c0.8-0.2,1.6-0.1,2.4,0.4l0.6,0.3l0.3-0.2
		c0.6-0.3,1.6-0.5,2.1-0.5c0.6,0,1.1,0.1,2.3,0.7c0.6,0.3,1.2,0.5,1.6,0.6c0.3,0.1,0.6,0.2,0.6,0.2c0,0.1,0,0.2-0.1,0.3
		c-0.2,0.2-2.2,1.8-2.6,2.1c-0.3,0.2-1.2,0.5-2,0.7C-29.1,36.4-31.3,36.6-32.4,36.4z M-28.2,35.3c1.2-0.3,2-0.7,2.6-1.3
		c0.2-0.2,0.2-0.2-0.8,0c-0.7,0.2-1,0.2-2.7,0.2c-1.1,0-2.2,0-2.6-0.1c-0.4,0-1.4-0.1-2.2-0.1l-1.6,0l0.3,0.3
		c0.6,0.5,1.4,0.8,2.9,1.2C-31.5,35.6-29.2,35.5-28.2,35.3z M-27.4,33.4c0.5,0,1-0.1,1.2-0.2l0.4-0.1l-0.7-0.3
		c-0.9-0.4-1.4-0.5-2.6-0.2c-1.2,0.3-1.8,0.3-2.5,0c-0.6-0.2-0.6-0.2-1.1-0.1c-0.5,0.1-2,0.7-2.3,0.9c-0.1,0.1-0.1,0.1,0.4,0
		c0.7-0.1,2.6-0.1,4.2,0C-28.5,33.5-28.3,33.5-27.4,33.4z M-40.7,29c0.3-0.1,0.9-0.4,1.4-0.6c0.8-0.4,0.9-0.5,1.6-1.1
		c0.8-0.8,1.2-1.4,1.6-2.5c0.1-0.3,0.3-0.6,0.3-0.5c0,0,0,0.4,0,0.8c-0.1,0.7-0.1,0.8-0.4,1.4c-0.4,0.9-0.9,1.4-1.9,1.9
		c-0.8,0.4-1.4,0.6-2.2,0.8C-41.1,29.2-41.2,29.2-40.7,29z M-21.3,28.7c-1.1-0.3-2.9-1.6-3.3-2.5c-0.3-0.6-0.6-2.2-0.3-2.2
		c0,0,0.1,0.1,0.1,0.1c0,0.2,0.5,1.2,0.8,1.6c0.7,1,1.7,1.8,2.8,2.4c0.5,0.2,0.6,0.2,1.4,0.3c0.9,0,0.9,0,0.6,0.1
		c-0.3,0.1-0.5,0.1-1.5,0.2C-20.7,28.8-21.1,28.8-21.3,28.7z M-31.4,27.1c-0.8-0.2-1.4-0.5-2-1.2c-0.6-0.7-0.8-0.9-0.6-1.3
		c0.3-0.4,0.7-0.3,1.4,0.4c0.5,0.5,0.9,0.8,1.6,0.9c0.8,0.2,2.3,0.1,3.3-0.2c0.5-0.2,0.6-0.2,0.7-0.1c0.2,0.3-0.5,0.9-1.7,1.3
		C-29.3,27.2-30.9,27.2-31.4,27.1z M-28.8,24.3c-0.2-0.2-0.2-0.5,0-0.8c0.1-0.3,0.7-0.3,0.9-0.1c0.2,0.2,0.2,0.7,0,0.9
		C-28.1,24.5-28.6,24.5-28.8,24.3z M-41.2,14.8c-0.4-0.2-0.6-0.6-0.7-1.1l0-0.5l-1.8,0c-1.3,0-2-0.1-2.5-0.2
		c-0.7-0.1-0.8-0.2-0.7-0.3c0-0.1,0.4-0.2,1-0.2c0.2,0,0.4,0,0.4-0.1c0,0-0.2-0.2-0.6-0.4c-1-0.5-0.9-0.8,0.2-0.5
		c1,0.3,2,0.4,5.4,0.5c3.1,0.1,3.4,0.1,3.8,0.2c0.3,0.1,0.6,0.2,0.7,0.3c0.2,0.1,0.2,0.2,0,0.3c-0.2,0.1-0.5,0.2-2,0.2l-1.2,0.1v0.3
		c0,0.4-0.2,0.7-0.5,1.1C-40.2,14.9-40.7,15.1-41.2,14.8z M-19.7,14.6c-0.3-0.1-0.5-0.2-0.8-0.5c-0.2-0.2-0.2-0.3-0.2-0.8l0-0.5
		l-0.6-0.1c-0.3,0-1.1,0-1.8,0c-1.1,0.1-1.2,0-1.1-0.1c0-0.1,0.2-0.2,0.4-0.3c0.2-0.1,0.6-0.2,0.8-0.3c0.6-0.2,1.5-0.3,4.5-0.4
		c2.4-0.1,4.3-0.3,5-0.6c0.5-0.2,0.8-0.1,0.4,0.2c-0.3,0.2-1,0.5-1.5,0.6c-0.3,0.1-0.3,0.1-0.2,0.1c0.1,0,0.5,0,0.8,0
		c0.6,0,0.7,0,0.7,0.1c0,0.1-0.2,0.2-0.7,0.4c-0.7,0.2-0.7,0.2-2.5,0.3l-1.8,0l0,0.3c0.1,0.5-0.2,1.1-0.6,1.3
		C-18.9,14.6-19.4,14.7-19.7,14.6z M-35.3,7.2c-0.3-0.1-0.5-0.2-0.9-0.5c-0.5-0.4-1.6-0.9-2.3-1c-1.1-0.3-4.1-0.4-5.4-0.2
		c-1.4,0.2-3.2,0.8-3.9,1.4C-48,6.9-48.2,7-48.2,6.9c0-0.3,1.6-1.9,2.2-2.3c0.4-0.2,1.5-0.6,2.3-0.8c0.9-0.2,3.2-0.2,4.5,0
		c0.9,0.1,2.2,0.5,2.9,0.8c0.7,0.3,1.8,1.3,2,1.8C-34,7-34.5,7.4-35.3,7.2z M-26.6,6.6c-0.5-0.3-0.5-0.7-0.1-1.1
		c0.6-0.6,1.5-1.1,2.3-1.3c1.9-0.5,3.6-0.6,5.4-0.4c1.8,0.2,2.8,0.4,3.8,1c0.7,0.4,2.4,1.7,2.4,1.8c0,0.1-0.3,0-0.8-0.3
		c-0.9-0.4-1.6-0.6-2.9-0.8c-0.8-0.1-1.3-0.2-3.2-0.2c-1.2,0-2.4,0-2.5,0.1c-0.2,0-1.1,0.4-2.1,0.7c-1,0.4-1.8,0.7-1.9,0.7
		C-26.4,6.7-26.5,6.7-26.6,6.6z"/>
</g>
<g transform="matrix(1,0,0,1,0,-0.003)">
	<path class="st7" d="M300,47.5C160.6,47.5,47.5,160.6,47.5,300c0,139.4,113.2,252.5,252.5,252.5c139.4,0,252.5-113.2,252.5-252.5
		C552.5,160.6,439.4,47.5,300,47.5z M300,56c134.7,0,244,109.3,244,244c0,134.7-109.3,244-244,244C165.3,544,56,434.7,56,300
		C56,165.3,165.3,56,300,56z"/>
</g>
</svg>
